<svg xmlns="http://www.w3.org/2000/svg" 
 width="601" height="330.0" viewBox="-1 -1 603 332.0">
<style>
text{font-size:11pt;
    font-style:normal;
    font-variant:normal;
    font-weight:normal;
    font-stretch:normal;
    text-align:center;
    fill-opacity:1;
    font-family:Helvetica}
.muted{fill:#aaa}
.warning{fill:#f6b900}
.error{fill:#f60000}
.info{fill:#0041c4}
.success{fill:#00ab00}
.h1{font-size:33pt;font-weight:bold}
.h2{font-size:27pt;font-weight:bold}
.h3{font-size:20pt;font-weight:bold}
.h4{font-size:14pt;font-weight:bold}
.h5{font-size:11pt;font-weight:bold}
.h6{font-size:8pt;font-weight:bold}
.path{fill:none;
    stroke:#000;
    stroke-width:1.5;
    stroke-linecap:round;
    stroke-linejoin:miter;
    stroke-miterlimit:4;
    stroke-opacity:1;
    stroke-dasharray:none}
.stripe{fill:none;
    stroke:#000;
    stroke-width:0.5;
    stroke-linecap:round;
    stroke-linejoin:miter;
    stroke-miterlimit:4;
    stroke-opacity:1;
    stroke-dasharray:none}
.arrow{fill:#000000;fill-opacity:1;stroke:none}
.hide{fill:#ffffff;fill-opacity:1;stroke:2}
</style>

<defs>
    <pattern id="diagonalHatch" width="5" height="5" patternTransform="rotate(45 0 0)" patternUnits="userSpaceOnUse">
        <line x1="0" y1="0" x2="0" y2="5" style="stroke:black; stroke-width:1" />
    </pattern>
</defs>
<g id="a"  ><g id="clk" transform="translate(121, 0.0)" >
<text x="-10" y="15" class="info" text-anchor="end" xml:space="preserve"><tspan>clk</tspan></text>
<g data-symbol="BRICKS.Pclk" transform="translate(0, 0)">
<path d="M0,10.0 L4.0,0 L11.0,0 L19.0,20 L26.0,20 L30,10.0" class="path" />
<path d="M 0 0 L 3.5 7 L 7 0 L 3.5 1.5z" transform="translate(-3.5, 6.5) rotate(-158.19859051364818, 3.5, 3.5)" class="arrow" />
</g><g data-symbol="." transform="translate(30, 0)">
<path d="M0,10.0 L4.0,0 L11.0,0 L19.0,20 L26.0,20 L30,10.0" class="path" />
<path d="M 0 0 L 3.5 7 L 7 0 L 3.5 1.5z" transform="translate(-3.5, 6.5) rotate(-158.19859051364818, 3.5, 3.5)" class="arrow" />
</g><g data-symbol="." transform="translate(60, 0)">
<path d="M0,10.0 L4.0,0 L11.0,0 L19.0,20 L26.0,20 L30,10.0" class="path" />
<path d="M 0 0 L 3.5 7 L 7 0 L 3.5 1.5z" transform="translate(-3.5, 6.5) rotate(-158.19859051364818, 3.5, 3.5)" class="arrow" />
</g><g data-symbol="." transform="translate(90, 0)">
<path d="M0,10.0 L4.0,0 L11.0,0 L19.0,20 L26.0,20 L30,10.0" class="path" />
<path d="M 0 0 L 3.5 7 L 7 0 L 3.5 1.5z" transform="translate(-3.5, 6.5) rotate(-158.19859051364818, 3.5, 3.5)" class="arrow" />
</g><g data-symbol="." transform="translate(120, 0)">
<path d="M0,10.0 L4.0,0 L11.0,0 L19.0,20 L26.0,20 L30,10.0" class="path" />
<path d="M 0 0 L 3.5 7 L 7 0 L 3.5 1.5z" transform="translate(-3.5, 6.5) rotate(-158.19859051364818, 3.5, 3.5)" class="arrow" />
</g><g data-symbol="." transform="translate(150, 0)">
<path d="M0,10.0 L4.0,0 L11.0,0 L19.0,20 L26.0,20 L30,10.0" class="path" />
<path d="M 0 0 L 3.5 7 L 7 0 L 3.5 1.5z" transform="translate(-3.5, 6.5) rotate(-158.19859051364818, 3.5, 3.5)" class="arrow" />
</g><g data-symbol="." transform="translate(180, 0)">
<path d="M0,10.0 L4.0,0 L11.0,0 L19.0,20 L26.0,20 L30,10.0" class="path" />
<path d="M 0 0 L 3.5 7 L 7 0 L 3.5 1.5z" transform="translate(-3.5, 6.5) rotate(-158.19859051364818, 3.5, 3.5)" class="arrow" />
</g><g data-symbol="." transform="translate(210, 0)">
<path d="M0,10.0 L4.0,0 L11.0,0 L19.0,20 L26.0,20 L30,10.0" class="path" />
<path d="M 0 0 L 3.5 7 L 7 0 L 3.5 1.5z" transform="translate(-3.5, 6.5) rotate(-158.19859051364818, 3.5, 3.5)" class="arrow" />
</g><g data-symbol="." transform="translate(240, 0)">
<path d="M0,10.0 L4.0,0 L11.0,0 L19.0,20 L26.0,20 L30,10.0" class="path" />
<path d="M 0 0 L 3.5 7 L 7 0 L 3.5 1.5z" transform="translate(-3.5, 6.5) rotate(-158.19859051364818, 3.5, 3.5)" class="arrow" />
</g></g><g id="gated_clk_a" transform="translate(121, 30.0)" >
<text x="-10" y="15" class="info" text-anchor="end" xml:space="preserve"><tspan>gated_clk_a</tspan></text>
<g data-symbol="BRICKS.pclk" transform="translate(0, 0)">
<path d="M0,10.0 L4.0,0 L11.0,0 L19.0,20 L26.0,20 L30,10.0" class="path" />
</g><g data-symbol="BRICKS.nclk" transform="translate(30, 0)">
<path d="M0,10.0 L4.0,20 L11.0,20 L19.0,0 L26.0,0 L30,10.0" class="path" />
</g><g data-symbol="BRICKS.pclk" transform="translate(60, 0)">
<path d="M0,10.0 L4.0,0 L11.0,0 L19.0,20 L26.0,20 L30,10.0" class="path" />
</g><g data-symbol="BRICKS.nclk" transform="translate(90, 0)">
<path d="M0,10.0 L4.0,20 L11.0,20 L19.0,0 L26.0,0 L30,10.0" class="path" />
</g><g data-symbol="BRICKS.Pclk" transform="translate(120, 0)">
<path d="M0,10.0 L4.0,0 L11.0,0 L19.0,20 L26.0,20 L30,10.0" class="path" />
<path d="M 0 0 L 3.5 7 L 7 0 L 3.5 1.5z" transform="translate(-3.5, 6.5) rotate(-158.19859051364818, 3.5, 3.5)" class="arrow" />
</g><g data-symbol="BRICKS.Nclk" transform="translate(150, 0)">
<path d="M0,10.0 L4.0,20 L11.0,20 L19.0,0 L26.0,0 L30,10.0" class="path" />
<path d="M 0 0 L 3.5 7 L 7 0 L 3.5 1.5z" transform="translate(-3.5, 6.5) rotate(-21.801409486351815, 3.5, 3.5)" class="arrow" />
</g><g data-symbol="." transform="translate(180, 0)">
<path d="M0,10.0 L4.0,20 L11.0,20 L19.0,0 L26.0,0 L30,10.0" class="path" />
<path d="M 0 0 L 3.5 7 L 7 0 L 3.5 1.5z" transform="translate(-3.5, 6.5) rotate(-21.801409486351815, 3.5, 3.5)" class="arrow" />
</g><g data-symbol="." transform="translate(210, 0)">
<path d="M0,10.0 L4.0,20 L11.0,20 L19.0,0 L26.0,0 L30,10.0" class="path" />
<path d="M 0 0 L 3.5 7 L 7 0 L 3.5 1.5z" transform="translate(-3.5, 6.5) rotate(-21.801409486351815, 3.5, 3.5)" class="arrow" />
</g><g data-symbol="." transform="translate(240, 0)">
<path d="M0,10.0 L4.0,20 L11.0,20 L19.0,0 L26.0,0 L30,10.0" class="path" />
<path d="M 0 0 L 3.5 7 L 7 0 L 3.5 1.5z" transform="translate(-3.5, 6.5) rotate(-21.801409486351815, 3.5, 3.5)" class="arrow" />
</g><g data-symbol="." transform="translate(270, 0)">
<path d="M0,10.0 L4.0,20 L11.0,20 L19.0,0 L26.0,0 L30,10.0" class="path" />
<path d="M 0 0 L 3.5 7 L 7 0 L 3.5 1.5z" transform="translate(-3.5, 6.5) rotate(-21.801409486351815, 3.5, 3.5)" class="arrow" />
</g></g><g id="gated_clk_b" transform="translate(121, 60.0)" >
<text x="-10" y="15" class="info" text-anchor="end" xml:space="preserve"><tspan>gated_clk_b</tspan></text>
<g data-symbol="BRICKS.pclk" transform="translate(0, 0)">
<path d="M0,10.0 L4.0,0 L11.0,0 L19.0,20 L26.0,20 L30,20.0" class="path" />
</g><g data-symbol="BRICKS.nclk" transform="translate(30, 0)">
<path d="M0,20.0 L4.0,20 L11.0,20 L19.0,0 L26.0,0 L30,0.0" class="path" />
</g><g data-symbol="BRICKS.pclk" transform="translate(60, 0)">
<path d="M0,0.0 L4.0,0 L11.0,0 L19.0,20 L26.0,20 L30,20.0" class="path" />
</g><g data-symbol="BRICKS.nclk" transform="translate(90, 0)">
<path d="M0,20.0 L4.0,20 L11.0,20 L19.0,0 L26.0,0 L30,0.0" class="path" />
</g><g data-symbol="BRICKS.Pclk" transform="translate(120, 0)">
<path d="M0,0.0 L4.0,0 L11.0,0 L19.0,20 L26.0,20 L30,20.0" class="path" />
</g><g data-symbol="BRICKS.Nclk" transform="translate(150, 0)">
<path d="M0,20.0 L4.0,20 L11.0,20 L19.0,0 L26.0,0 L30,10.0" class="path" />
</g><g data-symbol="." transform="translate(180, 0)">
<path d="M0,10.0 L4.0,20 L11.0,20 L19.0,0 L26.0,0 L30,10.0" class="path" />
<path d="M 0 0 L 3.5 7 L 7 0 L 3.5 1.5z" transform="translate(-3.5, 6.5) rotate(-21.801409486351815, 3.5, 3.5)" class="arrow" />
</g><g data-symbol="." transform="translate(210, 0)">
<path d="M0,10.0 L4.0,20 L11.0,20 L19.0,0 L26.0,0 L30,10.0" class="path" />
<path d="M 0 0 L 3.5 7 L 7 0 L 3.5 1.5z" transform="translate(-3.5, 6.5) rotate(-21.801409486351815, 3.5, 3.5)" class="arrow" />
</g><g data-symbol="." transform="translate(240, 0)">
<path d="M0,10.0 L4.0,20 L11.0,20 L19.0,0 L26.0,0 L30,10.0" class="path" />
<path d="M 0 0 L 3.5 7 L 7 0 L 3.5 1.5z" transform="translate(-3.5, 6.5) rotate(-21.801409486351815, 3.5, 3.5)" class="arrow" />
</g><g data-symbol="." transform="translate(270, 0)">
<path d="M0,10.0 L4.0,20 L11.0,20 L19.0,0 L26.0,0 L30,10.0" class="path" />
<path d="M 0 0 L 3.5 7 L 7 0 L 3.5 1.5z" transform="translate(-3.5, 6.5) rotate(-21.801409486351815, 3.5, 3.5)" class="arrow" />
</g></g><g id="data_0" transform="translate(121, 90.0)" >
<text x="-10" y="15" class="info" text-anchor="end" xml:space="preserve"><tspan>data_0</tspan></text>
<g data-symbol="BRICKS.low" transform="translate(0, 0)">
<path d="M0,0 L0,0 L4.5,0 L4.5,20 L30,20" class="path" />
</g><g data-symbol="BRICKS.high" transform="translate(30, 0)">
<path d="M0,20 L0,20 L4.5,20 L4.5,0 L30,0" class="path" />
</g><g data-symbol="." transform="translate(60, 0)">
<path d="M0,0 L0,20 L4.5,20 L4.5,0 L30,0" class="path" />
</g><g data-symbol="BRICKS.low" transform="translate(90, 0)">
<path d="M0,0 L0,0 L4.5,0 L4.5,20 L30,20" class="path" />
</g><g data-symbol="BRICKS.low" transform="translate(120, 0)">
<path d="M0,20 L0,0 L4.5,0 L4.5,20 L30,20" class="path" />
</g><g data-symbol="." transform="translate(150, 0)">
<path d="M0,20 L0,0 L4.5,0 L4.5,20 L30,20" class="path" />
</g><g data-symbol="." transform="translate(180, 0)">
<path d="M0,20 L0,0 L4.5,0 L4.5,20 L30,20" class="path" />
</g><g data-symbol="BRICKS.high" transform="translate(210, 0)">
<path d="M0,20 L0,20 L4.5,20 L4.5,0 L30,0" class="path" />
</g><g data-symbol="." transform="translate(240, 0)">
<path d="M0,0 L0,20 L4.5,20 L4.5,0 L30,0" class="path" />
</g><g data-symbol="." transform="translate(270, 0)">
<path d="M0,0 L0,20 L4.5,20 L4.5,0 L30,0" class="path" />
</g><g data-symbol="." transform="translate(300, 0)">
<path d="M0,0 L0,20 L4.5,20 L4.5,0 L30,0" class="path" />
</g></g><g id="data_1" transform="translate(121, 120.0)" >
<text x="-10" y="15" class="info" text-anchor="end" xml:space="preserve"><tspan>data_1</tspan></text>
<g data-symbol="BRICKS.low" transform="translate(0, 0)">
<path d="M0,0 L4.5,0 L4.5,0 L12.5,20 L30,20" class="path" />
</g><g data-symbol="BRICKS.high" transform="translate(30, 0)">
<path d="M0,20 L4.5,20 L4.5,20 L12.5,0 L30,0" class="path" />
</g><g data-symbol="." transform="translate(60, 0)">
<path d="M0,0 L4.5,11.25 L4.5,11.25 L9.0,0 L30,0" class="path" />
</g><g data-symbol="BRICKS.low" transform="translate(90, 0)">
<path d="M0,0 L4.5,0 L4.5,0 L12.5,20 L30,20" class="path" />
</g><g data-symbol="BRICKS.low" transform="translate(120, 0)">
<path d="M0,20 L4.5,8.75 L4.5,8.75 L9.0,20 L30,20" class="path" />
</g><g data-symbol="." transform="translate(150, 0)">
<path d="M0,20 L4.5,8.75 L4.5,8.75 L9.0,20 L30,20" class="path" />
</g><g data-symbol="." transform="translate(180, 0)">
<path d="M0,20 L4.5,8.75 L4.5,8.75 L9.0,20 L30,20" class="path" />
</g><g data-symbol="BRICKS.high" transform="translate(210, 0)">
<path d="M0,20 L4.5,20 L4.5,20 L12.5,0 L30,0" class="path" />
</g><g data-symbol="." transform="translate(240, 0)">
<path d="M0,0 L4.5,11.25 L4.5,11.25 L9.0,0 L30,0" class="path" />
</g><g data-symbol="." transform="translate(270, 0)">
<path d="M0,0 L4.5,11.25 L4.5,11.25 L9.0,0 L30,0" class="path" />
</g><g data-symbol="." transform="translate(300, 0)">
<path d="M0,0 L4.5,11.25 L4.5,11.25 L9.0,0 L30,0" class="path" />
</g></g><g id="data_2" transform="translate(121, 150.0)" >
<text x="-10" y="15" class="info" text-anchor="end" xml:space="preserve"><tspan>data_2</tspan></text>
<g data-symbol="BRICKS.zero" transform="translate(0, 0)">
<path d="M0,20 L8,20 L30,20" class="path" />
</g><g data-symbol="." transform="translate(30, 0)">
<path d="M0,20 L8,20 L30,20" class="path" />
</g><g data-symbol="BRICKS.one" transform="translate(60, 0)">
<path d="M0,20 L8,0 L30,0" class="path" />
</g><g data-symbol="." transform="translate(90, 0)">
<path d="M0,0 L8,0 L30,0" class="path" />
</g><g data-symbol="." transform="translate(120, 0)">
<path d="M0,0 L8,0 L30,0" class="path" />
</g><g data-symbol="BRICKS.zero" transform="translate(150, 0)">
<path d="M0,0 L8,20 L30,20" class="path" />
</g><g data-symbol="BRICKS.gap" transform="translate(172.5, 0)">
<path d="m7,-2 -4,0 c -5,0 -5,24 -10,24 l 4,0 C 2,24 2,-2 7,-2 z" class="hide"></path>
<path d="M-7,22 C -2,22 -2,-2 3,-2" class="path"></path>
<path d="M-3,22 C 2,22 2,-2 7,-2" class="path"></path>
</g><g data-symbol="BRICKS.one" transform="translate(180, 0)">
<path d="M0,20 L8,0 L30,0" class="path" />
</g><g data-symbol="." transform="translate(210, 0)">
<path d="M0,0 L8,0 L30,0" class="path" />
</g><g data-symbol="BRICKS.zero" transform="translate(240, 0)">
<path d="M0,0 L8,20 L30,20" class="path" />
</g></g><g id="data_3" transform="translate(121, 180.0)" >
<text x="-10" y="15" class="info" text-anchor="end" xml:space="preserve"><tspan>data_3</tspan></text>
<g data-symbol="BRICKS.zero" transform="translate(0, 0)">
<path d="M0,20 L0,20 L30,20" class="path" />
</g><g data-symbol="." transform="translate(30, 0)">
<path d="M0,20 L0,20 L30,20" class="path" />
</g><g data-symbol="BRICKS.one" transform="translate(60, 0)">
<path d="M0,20 L0,0 L30,0" class="path" />
</g><g data-symbol="." transform="translate(90, 0)">
<path d="M0,0 L0,0 L30,0" class="path" />
</g><g data-symbol="." transform="translate(120, 0)">
<path d="M0,0 L0,0 L30,0" class="path" />
</g><g data-symbol="BRICKS.zero" transform="translate(150, 0)">
<path d="M0,0 L0,20 L30,20" class="path" />
</g><g data-symbol="BRICKS.gap" transform="translate(160, 0)">
<path d="m7,-2 -4,0 c -5,0 -5,24 -10,24 l 4,0 C 2,24 2,-2 7,-2 z" class="hide"></path>
<path d="M-7,22 C -2,22 -2,-2 3,-2" class="path"></path>
<path d="M-3,22 C 2,22 2,-2 7,-2" class="path"></path>
</g><g data-symbol="BRICKS.one" transform="translate(180, 0)">
<path d="M0,20 L0,0 L30,0" class="path" />
</g><g data-symbol="." transform="translate(210, 0)">
<path d="M0,0 L0,0 L30,0" class="path" />
</g><g data-symbol="BRICKS.zero" transform="translate(240, 0)">
<path d="M0,0 L0,20 L30,20" class="path" />
</g></g><g id="data_4" transform="translate(121, 210.0)" >
<text x="-10" y="15" class="info" text-anchor="end" xml:space="preserve"><tspan>data_4</tspan></text>
<g data-symbol="BRICKS.zero" transform="translate(0, 0)">
<path d="M0,20 L26,20 L30,20" class="path" />
</g><g data-symbol="." transform="translate(30, 0)">
<path d="M0,20 L26,20 L30,20" class="path" />
</g><g data-symbol="BRICKS.one" transform="translate(60, 0)">
<path d="M0,20 L26,0 L30,0" class="path" />
</g><g data-symbol="." transform="translate(90, 0)">
<path d="M0,0 L26,0 L30,0" class="path" />
</g><g data-symbol="." transform="translate(120, 0)">
<path d="M0,0 L26,0 L30,0" class="path" />
</g><g data-symbol="BRICKS.zero" transform="translate(150, 0)">
<path d="M0,0 L26,20 L30,20" class="path" />
</g><g data-symbol="BRICKS.gap" transform="translate(172.5, 0)">
<path d="m7,-2 -4,0 c -5,0 -5,24 -10,24 l 4,0 C 2,24 2,-2 7,-2 z" class="hide"></path>
<path d="M-7,22 C -2,22 -2,-2 3,-2" class="path"></path>
<path d="M-3,22 C 2,22 2,-2 7,-2" class="path"></path>
</g><g data-symbol="BRICKS.one" transform="translate(180, 0)">
<path d="M0,20 L26,0 L30,0" class="path" />
</g><g data-symbol="." transform="translate(210, 0)">
<path d="M0,0 L26,0 L30,0" class="path" />
</g><g data-symbol="BRICKS.zero" transform="translate(240, 0)">
<path d="M0,0 L26,20 L30,20" class="path" />
</g></g><g id="data_5" transform="translate(121, 240.0)" >
<text x="-10" y="15" class="info" text-anchor="end" xml:space="preserve"><tspan>data_5</tspan></text>
<g data-symbol="BRICKS.zero" transform="translate(0, 0)">
<path d="M0,20 L0,20 L30,20" class="path" />
</g><g data-symbol="." transform="translate(30, 0)">
<path d="M0,20 L0,20 L30,20" class="path" />
</g><g data-symbol="BRICKS.one" transform="translate(60, 0)">
<path d="M0,20 L0,0 L30,0" class="path" />
</g><g data-symbol="." transform="translate(90, 0)">
<path d="M0,0 L0,0 L30,0" class="path" />
</g><g data-symbol="." transform="translate(120, 0)">
<path d="M0,0 L0,0 L30,0" class="path" />
</g><g data-symbol="BRICKS.zero" transform="translate(150, 0)">
<path d="M0,0 L0,20 L30,20" class="path" />
</g><g data-symbol="BRICKS.gap" transform="translate(166, 0)">
<path d="m7,-2 -4,0 c -5,0 -5,24 -10,24 l 4,0 C 2,24 2,-2 7,-2 z" class="hide"></path>
<path d="M-7,22 C -2,22 -2,-2 3,-2" class="path"></path>
<path d="M-3,22 C 2,22 2,-2 7,-2" class="path"></path>
</g><g data-symbol="BRICKS.one" transform="translate(180, 0)">
<path d="M0,20 L0,0 L30,0" class="path" />
</g><g data-symbol="." transform="translate(210, 0)">
<path d="M0,0 L0,0 L30,0" class="path" />
</g><g data-symbol="BRICKS.zero" transform="translate(240, 0)">
<path d="M0,0 L0,20 L30,20" class="path" />
</g></g><g id="DQS" transform="translate(121, 270.0)" >
<text x="-10" y="15" class="info" text-anchor="end" xml:space="preserve"><tspan>DQS</tspan></text>
<g data-symbol="BRICKS.highz" transform="translate(0, 0)">
<path d="M0,10.0 L0.0,10.0 L30,10.0" class="path" />
</g><g data-symbol="." transform="translate(30, 0)">
<path d="M0,10.0 L0.0,10.0 L30,10.0" class="path" />
</g><g data-symbol="." transform="translate(60, 0)">
<path d="M0,10.0 L0.0,10.0 L30,10.0" class="path" />
</g><g data-symbol="." transform="translate(90, 0)">
<path d="M0,10.0 L0.0,10.0 L30,10.0" class="path" />
</g><g data-symbol="." transform="translate(120, 0)">
<path d="M0,10.0 L0.0,10.0 L30,10.0" class="path" />
</g><g data-symbol="." transform="translate(150, 0)">
<path d="M0,10.0 L0.0,10.0 L30,10.0" class="path" />
</g><g data-symbol="." transform="translate(180, 0)">
<path d="M0,10.0 L0.0,10.0 L30,10.0" class="path" />
</g><g data-symbol="." transform="translate(210, 0)">
<path d="M0,10.0 L0.0,10.0 L30,10.0" class="path" />
</g><g data-symbol="BRICKS.zero" transform="translate(240, 0)">
<path d="M0,10.0 L8,20 L30,20" class="path" />
</g><g data-symbol="." transform="translate(270, 0)">
<path d="M0,20 L8,20 L30,20" class="path" />
</g><g data-symbol="BRICKS.one" transform="translate(300, 0)">
<path d="M0,20 L8,0 L30,0" class="path" />
</g><g data-symbol="BRICKS.zero" transform="translate(330, 0)">
<path d="M0,0 L8,20 L30,20" class="path" />
</g><g data-symbol="BRICKS.one" transform="translate(360, 0)">
<path d="M0,20 L8,0 L30,0" class="path" />
</g><g data-symbol="BRICKS.zero" transform="translate(390, 0)">
<path d="M0,0 L8,20 L30,20" class="path" />
</g><g data-symbol="BRICKS.highz" transform="translate(420, 0)">
<path d="M0,20 L4.0,10.0 L30,10.0" class="path" />
</g><g data-symbol="." transform="translate(450, 0)">
<path d="M0,10.0 L0.0,10.0 L30,10.0" class="path" />
</g></g><g id="Data" transform="translate(121, 300.0)" >
<text x="-10" y="15" class="info" text-anchor="end" xml:space="preserve"><tspan>Data</tspan></text>
<g data-symbol="BRICKS.zero" transform="translate(0, 0)">
<path d="M0,20 L8,20 L30,20" class="path" />
</g><g data-symbol="." transform="translate(30, 0)">
<path d="M0,20 L8,20 L30,20" class="path" />
</g><g data-symbol="." transform="translate(60, 0)">
<path d="M0,20 L8,20 L30,20" class="path" />
</g><g data-symbol="BRICKS.zero" transform="translate(90, 0)">
<path d="M0,20 L8,20 L30,20" class="path" />
</g><g data-symbol="BRICKS.one" transform="translate(120, 0)">
<path d="M0,20 L8,0 L30,0" class="path" />
</g><g data-symbol="BRICKS.data" transform="translate(150, 0)">
<path d="M0,0 L5,0 L25,0 L30,10.0" class="path" />
<path d="M0,0 L5,20 L25,20 L30,10.0" class="path" />
<polygon points="0,10.0 5,0 25,0 30,10.0 25,20 5,20 0,10.0 " fill="none" /></g><g data-symbol="BRICKS.data" transform="translate(180, 0)">
<path d="M0,10.0 L0,10.0 L5,0 L25,0 L30,0.0" class="path" />
<path d="M0,10.0 L0,10.0 L5,20 L25,20 L30,20.0" class="path" />
<polygon points="0,10.0 5,0 25,0 30,10.0 25,20 5,20 0,10.0 " fill="none" /></g><g data-symbol="." transform="translate(210, 0)">
<path d="M0,0.0 L5,0 L25,0 L30,0.0" class="path" />
<path d="M0,20.0 L5,20 L25,20 L30,20.0" class="path" />
<polygon points="0,10.0 5,0 25,0 30,10.0 25,20 5,20 0,10.0 " fill="none" /></g><g data-symbol="." transform="translate(240, 0)">
<path d="M0,0.0 L5,0 L25,0 L30,0.0" class="path" />
<path d="M0,20.0 L5,20 L25,20 L30,20.0" class="path" />
<polygon points="0,10.0 5,0 25,0 30,10.0 25,20 5,20 0,10.0 " fill="none" /></g><g data-symbol="." transform="translate(270, 0)">
<path d="M0,0.0 L5,0 L25,0 L30,10.0" class="path" />
<path d="M0,20.0 L5,20 L25,20 L30,10.0" class="path" />
<polygon points="0,10.0 5,0 25,0 30,10.0 25,20 5,20 0,10.0 " fill="none" /></g><g data-symbol="BRICKS.data" transform="translate(300, 0)">
<path d="M0,10.0 L0,10.0 L5,0 L25,0 L30,0.0" class="path" />
<path d="M0,10.0 L0,10.0 L5,20 L25,20 L30,20.0" class="path" />
<polygon points="0,10.0 5,0 25,0 30,10.0 25,20 5,20 0,10.0 " fill="none" /></g><g data-symbol="." transform="translate(330, 0)">
<path d="M0,0.0 L5,0 L25,0 L30,10.0" class="path" />
<path d="M0,20.0 L5,20 L25,20 L30,10.0" class="path" />
<polygon points="0,10.0 5,0 25,0 30,10.0 25,20 5,20 0,10.0 " fill="none" /></g></g></g>
</svg>