<svg xmlns="http://www.w3.org/2000/svg" 
 width="360" height="40" viewBox="-1 -1 362 42">
<style>
text{font-size:11pt;
    font-style:normal;
    font-variant:normal;
    font-weight:normal;
    font-stretch:normal;
    text-align:center;
    fill-opacity:1;
    font-family:Helvetica}
.muted{fill:#aaa}
.warning{fill:#f6b900}
.error{fill:#f60000}
.info{fill:#0041c4}
.success{fill:#00ab00}
.h1{font-size:33pt;font-weight:bold}
.h2{font-size:27pt;font-weight:bold}
.h3{font-size:20pt;font-weight:bold}
.h4{font-size:14pt;font-weight:bold}
.h5{font-size:11pt;font-weight:bold}
.h6{font-size:8pt;font-weight:bold}
.path{fill:none;
    stroke:#000;
    stroke-width:1.5;
    stroke-linecap:round;
    stroke-linejoin:miter;
    stroke-miterlimit:4;
    stroke-opacity:1;
    stroke-dasharray:none}
.stripe{fill:none;
    stroke:#000;
    stroke-width:0.5;
    stroke-linecap:round;
    stroke-linejoin:miter;
    stroke-miterlimit:4;
    stroke-opacity:1;
    stroke-dasharray:none}
.arrow{fill:#000000;fill-opacity:1;stroke:none}
.hide{fill:#ffffff;fill-opacity:1;stroke:2}
</style>

<defs>
    <pattern id="diagonalHatch" width="5" height="5" patternTransform="rotate(45 0 0)" patternUnits="userSpaceOnUse">
        <line x1="0" y1="0" x2="0" y2="5" style="stroke:black; stroke-width:1" />
    </pattern>
</defs>
<g id="clk_0"  >
<text x="-10" y="15" class="info" text-anchor="end" xml:space="preserve"><tspan>clk_0</tspan></text>
<g data-symbol="BRICKS.Pclk" transform="translate(0, 0)">
<path d="M0,20.0 L0.0,0 L20.0,0 L20.0,40 L40.0,40 L40,20.0" class="path" />
<path d="M 0 0 L 3.5 7 L 7 0 L 3.5 1.5z" transform="translate(-3.5, 16.5) rotate(-180.0, 3.5, 3.5)" class="arrow" />
</g><g data-symbol="." transform="translate(40, 0)">
<path d="M0,20.0 L0.0,0 L20.0,0 L20.0,40 L40.0,40 L40,20.0" class="path" />
<path d="M 0 0 L 3.5 7 L 7 0 L 3.5 1.5z" transform="translate(-3.5, 16.5) rotate(-180.0, 3.5, 3.5)" class="arrow" />
</g><g data-symbol="." transform="translate(80, 0)">
<path d="M0,20.0 L0.0,0 L20.0,0 L20.0,40 L40.0,40 L40,20.0" class="path" />
<path d="M 0 0 L 3.5 7 L 7 0 L 3.5 1.5z" transform="translate(-3.5, 16.5) rotate(-180.0, 3.5, 3.5)" class="arrow" />
</g><g data-symbol="." transform="translate(120, 0)">
<path d="M0,20.0 L0.0,0 L20.0,0 L20.0,40 L40.0,40 L40,20.0" class="path" />
<path d="M 0 0 L 3.5 7 L 7 0 L 3.5 1.5z" transform="translate(-3.5, 16.5) rotate(-180.0, 3.5, 3.5)" class="arrow" />
</g><g data-symbol="." transform="translate(160, 0)">
<path d="M0,20.0 L0.0,0 L20.0,0 L20.0,40 L40.0,40 L40,20.0" class="path" />
<path d="M 0 0 L 3.5 7 L 7 0 L 3.5 1.5z" transform="translate(-3.5, 16.5) rotate(-180.0, 3.5, 3.5)" class="arrow" />
</g><g data-symbol="." transform="translate(200, 0)">
<path d="M0,20.0 L0.0,0 L20.0,0 L20.0,40 L40.0,40 L40,20.0" class="path" />
<path d="M 0 0 L 3.5 7 L 7 0 L 3.5 1.5z" transform="translate(-3.5, 16.5) rotate(-180.0, 3.5, 3.5)" class="arrow" />
</g><g data-symbol="." transform="translate(240, 0)">
<path d="M0,20.0 L0.0,0 L20.0,0 L20.0,40 L40.0,40 L40,20.0" class="path" />
<path d="M 0 0 L 3.5 7 L 7 0 L 3.5 1.5z" transform="translate(-3.5, 16.5) rotate(-180.0, 3.5, 3.5)" class="arrow" />
</g><g data-symbol="." transform="translate(280, 0)">
<path d="M0,20.0 L0.0,0 L20.0,0 L20.0,40 L40.0,40 L40,20.0" class="path" />
<path d="M 0 0 L 3.5 7 L 7 0 L 3.5 1.5z" transform="translate(-3.5, 16.5) rotate(-180.0, 3.5, 3.5)" class="arrow" />
</g><g data-symbol="." transform="translate(320, 0)">
<path d="M0,20.0 L0.0,0 L20.0,0 L20.0,40 L40.0,40 L40,20.0" class="path" />
<path d="M 0 0 L 3.5 7 L 7 0 L 3.5 1.5z" transform="translate(-3.5, 16.5) rotate(-180.0, 3.5, 3.5)" class="arrow" />
</g></g>
</svg>