<svg xmlns="http://www.w3.org/2000/svg" width="175.296000" height="25.000000" viewBox="-1 -1 175.296000 27.000000">
<style>
:root {padding-top: 0.000px;padding-bottom: 0.000px;}
.title {fill: rgba(0, 65, 196, 255);font-weight: 500;font-size: 0.500em;font-family: Fira Mono;text-align: right;text-anchor: end;dominant-baseline: middle;alignment-baseline: central;}
.text {fill: rgba(0, 0, 0, 255);font-size: 0.900em;font-style: normal;font-variant: normal;font-weight: 500;font-stretch: normal;text-align: center;font-family: Fira Mono;}
.attr {fill: rgba(0, 0, 0, 255);font-size: 9.000px;font-style: normal;font-variant: normal;font-weight: 200;font-stretch: normal;text-align: center;font-family: Fira Mono;text-anchor: middle;dominant-baseline: middle;alignment-baseline: central;}
.path {fill: none;stroke: rgba(0, 0, 0, 255);stroke-width: 1;stroke-linecap: round;stroke-linejoin: miter;stroke-miterlimit: 4;stroke-dasharray: none;}
.stripe {fill: none;stroke: rgba(0, 0, 0, 255);stroke-width: 0.5;stroke-linecap: round;stroke-linejoin: miter;stroke-miterlimit: 4;stroke-dasharray: none;}
.data {fill: rgba(0, 0, 0, 255);font-size: 0.400em;font-style: normal;font-variant: normal;font-weight: 500;font-stretch: normal;text-align: center;font-family: Fira Mono;text-anchor: middle;dominant-baseline: middle;alignment-baseline: central;}
.hatch {fill: url(#diagonalHatch);}
.s2-polygon {fill: rgba(0, 0, 0, 0);stroke: none;}
.s3-polygon {fill: rgba(255, 255, 176, 255);stroke: none;}
.s4-polygon {fill: rgba(255, 224, 185, 255);stroke: none;}
.s5-polygon {fill: rgba(185, 224, 255, 255);stroke: none;}
.s6-polygon {fill: rgba(0, 53, 75, 200);stroke: none;}
.s7-polygon {fill: rgba(101, 187, 169, 200);stroke: none;}
.s8-polygon {fill: rgba(221, 65, 54, 200);stroke: none;}
.s9-polygon {fill: rgba(237, 165, 34, 200);stroke: none;}
.tick {stroke: rgba(136, 136, 136, 128);stroke-width: 0.5;stroke-dasharray: 1, 3;}
.big_gap {stroke: rgba(136, 136, 136, 255);stroke-width: 0.5;stroke-dasharray: none;}
.border {stroke-width: 1.25;stroke: rgba(0, 0, 0, 255);}
.hide {fill: rgba(255, 255, 255, 255);stroke: rgba(255, 255, 255, 255);stroke-width: 2;}
.edge {fill: none;stroke: rgba(0, 0, 255, 255);stroke-width: 1;}
.edge-arrow {fill: rgba(0, 0, 255, 255);stroke: rgba(0, 0, 255, 255);overflow: visible;}
.edge-text {font-family: Fira Mono;font-size: 0.300em;fill: rgba(0, 0, 0, 255);filter: #solid;transform: translate(0, 2.5px);text-anchor: middle;}
.edge-background {fill: rgba(255, 255, 255, 255);stroke: rgba(255, 255, 255, 255);stroke-width: 2;}
.arrow {fill: rgba(0, 0, 0, 255);stroke: none;}
.h1 {fill: rgba(0, 0, 0, 255);font-size: 12.000px;font-weight: bold;font-family: Fira Mono;text-align: left;dominant-baseline: middle;}
.h2 {fill: rgba(0, 0, 0, 255);font-size: 10.000px;font-weight: bold;font-family: Fira Mono;text-align: left;dominant-baseline: middle;}
.h3 {fill: rgba(0, 0, 0, 255);font-size: 8.000px;font-weight: bold;font-family: Fira Mono;text-align: left;dominant-baseline: middle;}
.h4 {fill: rgba(0, 0, 0, 255);font-size: 6.000px;font-weight: bold;font-family: Fira Mono;text-align: left;dominant-baseline: middle;}
.h5 {fill: rgba(0, 0, 0, 255);font-size: 5.000px;font-weight: bold;font-family: Fira Mono;text-align: left;dominant-baseline: middle;}
.h6 {fill: rgba(0, 0, 0, 255);font-size: 4.000px;font-weight: bold;font-family: Fira Mono;text-align: left;dominant-baseline: middle;}
.reg-data {fill: rgba(0, 0, 0, 255);font-size: 0.800em;font-style: normal;font-variant: normal;font-weight: 500;font-stretch: normal;text-align: center;font-family: Fira Mono;text-anchor: middle;dominant-baseline: middle;alignment-baseline: central;}
.reg-pos {fill: rgba(0, 0, 0, 255);font-size: 0.600em;font-style: normal;font-variant: normal;font-weight: 500;font-stretch: normal;text-align: center;font-family: Fira Mono;text-anchor: middle;dominant-baseline: middle;alignment-baseline: central;}
.wave {mask: url(#wavezone);}
</style>

<defs>
    <pattern id="diagonalHatch" width="5" height="5" patternTransform="rotate(45 0 0)" patternUnits="userSpaceOnUse">
        <line x1="0" y1="0" x2="0" y2="5" style="stroke:black; stroke-width:1" />
    </pattern>
    <marker id="arrow" viewBox="0 0 10 10" refX="10" refY="5"
        markerWidth="7" markerHeight="7" markerUnits="userSpaceOnUse"
        orient="auto-start-reverse" style="fill:#00F;">
      <path d="M 0 0 L 10 5 L 0 10 z" />
    </marker>
    <filter x="0" y="0" width="1" height="1" id="solid">
      <feFlood flood-color="white"/>
      <feComposite in="SourceGraphic"/>
    </filter>
    <mask id="wavezone">
        <rect x="-13" y="-8" width="13" height="45" fill="black" />
        <rect x="0" y="-8" width="159" height="45" fill="white" />
    </mask>
</defs>
<g id="a"   >
<g id="ticks_1"   transform="translate(13.336000, 0.000000)"  >
<path d="M0.000000,0.000000 L0.000000,25.000000" class="tick" style="fill: none;" />
<path d="M40.000000,0.000000 L40.000000,25.000000" class="tick" style="fill: none;" />
<path d="M80.000000,0.000000 L80.000000,25.000000" class="tick" style="fill: none;" />
</g>

<g id="a"   transform="translate(13.336000, 0.000000)"  >
<text x="-10.000000" y="10.000000" class="title" style="stroke: none;">a</text>
<g id="a_wave" class="wave"  >
<g data-symbol="a"  transform="translate(0.000000, 0.000000)"  class="">
<path d="M0.000000,20.000000 L0.000000,10.000000 L1.000000,6.937819 L2.000000,4.265444 L3.000000,2.278311 L4.000000,1.177619 L5.000000,1.045887 L6.000000,1.839732 L7.000000,3.400545 L8.000000,5.481121 L9.000000,7.783943 L10.000000,10.005217 L11.000000,11.878041 L12.000000,13.208331 L13.000000,13.898418 L14.000000,13.955153 L15.000000,13.481810 L16.000000,12.655525 L17.000000,11.694186 L18.000000,10.818208 L19.000000,10.213293 L20.000000,10.000005 L21.000000,10.214822 L22.000000,10.805443 L23.000000,11.640903 L24.000000,12.534679 L25.000000,13.277010 L26.000000,13.671202 L27.000000,13.568141 L28.000000,12.893526 L29.000000,11.663503 L30.000000,9.986177 L31.000000,8.048675 L32.000000,6.091657 L33.000000,4.375085 L34.000000,3.140390 L35.000000,2.574742 L36.000000,2.782769 L37.000000,3.769985 L38.000000,5.440376 L39.000000,7.608529 L40.000000,10.024471 L41.000000,12.407575 L42.000000,14.484524 L43.000000,16.025835 L44.000000,16.875663 L45.000000,16.970719 L46.000000,16.345752 L47.000000,15.125096 L48.000000,13.501827 L49.000000,11.707873 L50.000000,9.979701 L51.000000,8.524735 L52.000000,7.493448 L53.000000,6.961102 L54.000000,6.921556 L55.000000,7.293704 L56.000000,7.939136 L57.000000,8.687990 L58.000000,9.368740 L59.000000,9.837163 L60.000000,9.999962 L61.000000,9.829422 L62.000000,9.366944 L63.000000,8.715061 L64.000000,8.019352 L65.000000,7.443217 L66.000000,7.139600 L67.000000,7.224140 L68.000000,7.754040 L69.000000,8.715998 L70.000000,10.025138 L71.000000,11.535194 L72.000000,13.058451 L73.000000,14.392448 L74.000000,15.349449 L75.000000,15.784233 L76.000000,15.616040 L77.000000,14.841378 L78.000000,13.535781 L79.000000,11.844266 L80.000000,9.961886 L81.000000,8.107288 L82.000000,6.493124 L83.000000,5.297646 L84.000000,4.641560 L85.000000,4.573398 L86.000000,5.065346 L87.000000,6.019945 L88.000000,7.286401 L89.000000,8.683916 L90.000000,10.028432 L91.000000,11.158752 L92.000000,11.958218 L93.000000,12.368844 L94.000000,12.396035 L95.000000,12.103485 L96.000000,11.599340 L97.000000,11.016018 L98.000000,10.487000 L99.000000,10.124291 L100.000000,10.000083 L101.000000,10.135420 L102.000000,10.497538 L103.000000,11.006168 L104.000000,11.547691 L105.000000,11.994820 L106.000000,12.228636 L107.000000,12.159462 L108.000000,11.743264 L109.000000,10.990970 L110.000000,9.969214 L111.000000,8.792316 L112.000000,7.606696 L113.000000,6.570029 L114.000000,5.828295 L115.000000,5.494164 L116.000000,5.629967 L117.000000,6.237800 L118.000000,7.258244 L119.000000,8.577885 L120.000000,10.044521 L121.000000,11.487804 L122.000000,12.742281 L123.000000,13.669498 L124.000000,14.175967 L125.000000,14.224486 L126.000000,13.837295 L127.000000,13.090787 L128.000000,12.102730 L129.000000,11.014061 L130.000000,9.968044 L131.000000,9.089946 L132.000000,8.470207 L133.000000,8.153500 L134.000000,8.135128 L135.000000,8.365077 L136.000000,8.758849 L137.000000,9.213218 L138.000000,9.624313 L139.000000,9.905151 L140.000000,9.999874 L141.000000,9.892513 L142.000000,9.608990 L143.000000,9.212143 L144.000000,8.790645 L145.000000,8.443649 L146.000000,8.263617 L147.000000,8.320090 L148.000000,8.646959 L149.000000,9.235271 L150.000000,10.032718 L151.000000,10.949948 L152.000000,11.872758 L153.000000,12.678351 L154.000000,13.253218 L155.000000,13.509946 L156.000000,13.400433 L157.000000,12.923533 L158.000000,12.125981 L159.000000,11.096474" class="path" style="fill: none;" />
</g>
</g>
</g>
</g>

</svg>