<svg xmlns="http://www.w3.org/2000/svg" width="104" height="520" viewBox="-4 -4 106 520">
    <!-- yellow color #FFD43B or #FFE873 -->
    <!-- blue color #306998 or #4B8BBE -->
    <linearGradient id="my-cool-gradient" x2="1" y2="1">
        <stop offset="0%" stop-color="#333" />
        <stop offset="50%" stop-color="#333" />
        <stop offset="100%" stop-color="#333" />
    </linearGradient>
    <linearGradient id="rev-my-cool-gradient" x2="1" y2="1">
        <stop offset="100%" stop-color="#333" />
        <stop offset="50%" stop-color="#333" />
        <stop offset="0%" stop-color="#333" />
    </linearGradient>
    <filter id="displacementFilter">
        <feTurbulence type="turbulence" baseFrequency="0.05"
            numOctaves="2" result="turbulence"/>
        <feDisplacementMap in2="turbulence" in="SourceGraphic"
            scale="3" xChannelSelector="R" yChannelSelector="G"/>
    </filter>
    <def>
        <path id="vertical-path" fill="none" stroke="red" d="M48,128 L48,420" />
    </def>
    <g style="filter: url(#displacementFilter)">
        <path class="cartouche" d="M0,48 Q0,0 48,0 96,0 96,48 L96,450 Q96,498 48,498 0,498 0,450z" />
        <path class="cartouche-inside" d="M8,48 Q8,8 48,8 88,8 88,48 L88,450 Q88,490 48,490 8,490 8,450" />
        <path class="cartouche-bottom" d="M48,512 L0,512 Q0,498 48,498 96,498 96,512z" />
        <rect class="cartouche-jonction" x="28" y="490" width="4" height="24" rx="2" ry="2" />
        <rect class="cartouche-jonction" x="32" y="492" width="4" height="22" rx="2" ry="2" />
        <rect class="cartouche-jonction" x="36" y="494" width="4" height="20" rx="2" ry="2" />
        <rect class="cartouche-jonction" x="40" y="495" width="4" height="19" rx="2" ry="2" />
        <rect class="cartouche-jonction" x="44" y="496" width="4" height="18" rx="2" ry="2" />
        <rect class="cartouche-jonction" x="48" y="498" width="4" height="16" rx="2" ry="2" />
        <rect class="cartouche-jonction" x="52" y="496" width="4" height="18" rx="2" ry="2" />
        <rect class="cartouche-jonction" x="56" y="495" width="4" height="19" rx="2" ry="2" />
        <rect class="cartouche-jonction" x="60" y="494" width="4" height="20" rx="2" ry="2" />
        <rect class="cartouche-jonction" x="64" y="492" width="4" height="22" rx="2" ry="2" />
        <rect class="cartouche-jonction" x="68" y="490" width="4" height="24" rx="2" ry="2" />
        <text class="cartouche-text">
            <textPath href="#vertical-path" method="strech" spacing="auto">
                Undulate
            </textPath>
        </text>
        <path class="waves" d="M18,64 l6,-6 6,6 6,-6 6,6 6,-6 6,6 6,-6 6,6 6,-6 6,6" />
        <path class="python" d="
            M20,85 l6,-4 4,6 4,4 4,2 4,0 6,-2 4,0 4,0.5 4,0.5 4,0 6,0 4,0
            l-4,0 -6,-2 -6,-1.5 -6,-1 -8,0.5 -4,1 -4,0 -4,-2 -4,-4, -2,-2
            l4,-4 -4,4 -4,-4"/>
        <path class="waves" d="M18,450 l6,-6 6,6 6,-6 6,6 6,-6 6,6 6,-6 6,6 6,-6 6,6" />
    </g>
    <style>
        .cartouche {
            /*fill: url(#my-cool-gradient);*/
            stroke: #333;
            stroke-width: 8;
        }

        .cartouche-inside {
            fill: #fff;
        }

        .cartouche-jonction {
            fill: url(#rev-my-cool-gradient);
            stroke: #0000000F;
            stroke-width: 1;
        }

        .cartouche-bottom {
            stroke: #333;
            stroke-width: 8;
            fill: none;
        }

        .cartouche-text {
            font-family: Lato;
            font-size: 36px;
            font-weight: 800;
            font-stretch: condensed;
            text-anchor: start;
            letter-spacing: -4px;
            writing-mode: tb;           /* SVG 1 syntax */
            glyph-orientation-vertical: 0;
            writing-mode: vertical-rl;  /* CSS3 syntax */
            text-orientation: upright;
        }

        .waves {
            stroke: #306998;
            stroke-width: 4px;
            stroke-linecap: round;
            stroke-linejoin: miter;
            fill: none;
        }

        .python {
            stroke: #FFD43B;
            stroke-width: 4px;
            stroke-linecap: round;
            stroke-linejoin: miter;
            fill: none;
        }
    </style>
</svg>
