<svg xmlns="http://www.w3.org/2000/svg" width="906.000000" height="170.500000" viewBox="-1 -1 906.000000 172.500000">
<style>
:root {padding-top: 1.000em;padding-bottom: 1.000em;fill: rgba(255, 255, 255, 255);}
.title {fill: rgba(0, 65, 196, 255);font-weight: 500;font-size: 0.500em;font-family: Fira Mono;text-align: right;text-anchor: end;dominant-baseline: middle;alignment-baseline: central;}
.text {fill: rgba(0, 0, 0, 255);font-size: 0.900em;font-style: normal;font-variant: normal;font-weight: 500;font-stretch: normal;text-align: center;font-family: Fira Mono;}
.attr {fill: rgba(0, 0, 0, 255);font-size: 9.000px;font-style: normal;font-variant: normal;font-weight: 200;font-stretch: normal;text-align: center;font-family: Fira Mono;text-anchor: middle;dominant-baseline: middle;alignment-baseline: central;}
.path {fill: none;stroke: rgba(0, 0, 0, 255);stroke-width: 1;stroke-linecap: round;stroke-linejoin: miter;stroke-miterlimit: 4;stroke-dasharray: none;}
.stripe {fill: none;stroke: rgba(0, 0, 0, 255);stroke-width: 0.5;stroke-linecap: round;stroke-linejoin: miter;stroke-miterlimit: 4;stroke-dasharray: none;}
.data {fill: rgba(0, 0, 0, 255);font-size: 0.400em;font-style: normal;font-variant: normal;font-weight: 500;font-stretch: normal;text-align: center;font-family: Fira Mono;text-anchor: middle;dominant-baseline: middle;alignment-baseline: central;}
.hatch {fill: url(#diagonalHatch);}
.s2-polygon {fill: rgba(0, 0, 0, 0);stroke: none;}
.s3-polygon {fill: rgba(255, 255, 176, 255);stroke: none;}
.s4-polygon {fill: rgba(255, 224, 185, 255);stroke: none;}
.s5-polygon {fill: rgba(185, 224, 255, 255);stroke: none;}
.s6-polygon {fill: rgba(0, 53, 75, 200);stroke: none;}
.s7-polygon {fill: rgba(101, 187, 169, 200);stroke: none;}
.s8-polygon {fill: rgba(221, 65, 54, 200);stroke: none;}
.s9-polygon {fill: rgba(237, 165, 34, 200);stroke: none;}
.tick {stroke: rgba(136, 136, 136, 128);stroke-width: 0.5;stroke-dasharray: 1, 3;}
.big_gap {stroke: rgba(136, 136, 136, 255);stroke-width: 0.5;stroke-dasharray: none;}
.border {stroke-width: 1.25;stroke: rgba(0, 0, 0, 255);}
.hide {fill: rgba(255, 255, 255, 255);stroke: rgba(255, 255, 255, 255);stroke-width: 2;}
.edge {fill: none;stroke: rgba(0, 0, 255, 255);stroke-width: 1;}
.edge-arrow {fill: rgba(0, 0, 255, 255);stroke: rgba(0, 0, 255, 255);overflow: visible;}
.edge-text {font-family: Fira Mono;font-size: 0.300em;fill: rgba(0, 0, 0, 255);filter: #solid;transform: translate(0, 2.5px);text-anchor: middle;}
.edge-background {fill: rgba(255, 255, 255, 255);stroke: rgba(255, 255, 255, 255);stroke-width: 2;}
.arrow {fill: rgba(0, 0, 0, 255);stroke: none;}
.h1 {fill: rgba(0, 0, 0, 255);font-size: 12.000px;font-weight: bold;font-family: Fira Mono;text-align: left;dominant-baseline: middle;}
.h2 {fill: rgba(0, 0, 0, 255);font-size: 10.000px;font-weight: bold;font-family: Fira Mono;text-align: left;dominant-baseline: middle;}
.h3 {fill: rgba(0, 0, 0, 255);font-size: 8.000px;font-weight: bold;font-family: Fira Mono;text-align: left;dominant-baseline: middle;}
.h4 {fill: rgba(0, 0, 0, 255);font-size: 6.000px;font-weight: bold;font-family: Fira Mono;text-align: left;dominant-baseline: middle;}
.h5 {fill: rgba(0, 0, 0, 255);font-size: 5.000px;font-weight: bold;font-family: Fira Mono;text-align: left;dominant-baseline: middle;}
.h6 {fill: rgba(0, 0, 0, 255);font-size: 4.000px;font-weight: bold;font-family: Fira Mono;text-align: left;dominant-baseline: middle;}
.reg-data {fill: rgba(0, 0, 0, 255);font-size: 0.800em;font-style: normal;font-variant: normal;font-weight: 500;font-stretch: normal;text-align: center;font-family: Fira Mono;text-anchor: middle;dominant-baseline: middle;alignment-baseline: central;}
.reg-pos {fill: rgba(0, 0, 0, 255);font-size: 0.600em;font-style: normal;font-variant: normal;font-weight: 500;font-stretch: normal;text-align: center;font-family: Fira Mono;text-anchor: middle;dominant-baseline: middle;alignment-baseline: central;}
.wave {mask: url(#wavezone);}
</style>

<defs>
    <pattern id="diagonalHatch" width="5" height="5" patternTransform="rotate(45 0 0)" patternUnits="userSpaceOnUse">
        <line x1="0" y1="0" x2="0" y2="5" style="stroke:black; stroke-width:1" />
    </pattern>
    <marker id="arrow" viewBox="0 0 10 10" refX="10" refY="5"
        markerWidth="7" markerHeight="7" markerUnits="userSpaceOnUse"
        orient="auto-start-reverse" style="fill:#00F;">
      <path d="M 0 0 L 10 5 L 0 10 z" />
    </marker>
    <filter x="0" y="0" width="1" height="1" id="solid">
      <feFlood flood-color="white"/>
      <feComposite in="SourceGraphic"/>
    </filter>
    <mask id="wavezone">
        <rect x="-8" y="-8" width="8" height="252" fill="black" />
        <rect x="0" y="-8" width="896" height="252" fill="white" />
    </mask>
</defs>
<g id="a"   >
<g id="ticks_1"   transform="translate(8.000000, 0.000000)"  >
<path d="M0.000000,0.000000 L0.000000,170.500000" class="tick" style="fill: none;" />
<path d="M28.000000,0.000000 L28.000000,170.500000" class="tick" style="fill: none;" />
<path d="M56.000000,0.000000 L56.000000,170.500000" class="tick" style="fill: none;" />
<path d="M84.000000,0.000000 L84.000000,170.500000" class="tick" style="fill: none;" />
<path d="M112.000000,0.000000 L112.000000,170.500000" class="tick" style="fill: none;" />
<path d="M140.000000,0.000000 L140.000000,170.500000" class="tick" style="fill: none;" />
<path d="M168.000000,0.000000 L168.000000,170.500000" class="tick" style="fill: none;" />
<path d="M196.000000,0.000000 L196.000000,170.500000" class="tick" style="fill: none;" />
<path d="M224.000000,0.000000 L224.000000,170.500000" class="tick" style="fill: none;" />
<path d="M252.000000,0.000000 L252.000000,170.500000" class="tick" style="fill: none;" />
<path d="M280.000000,0.000000 L280.000000,170.500000" class="tick" style="fill: none;" />
<path d="M308.000000,0.000000 L308.000000,170.500000" class="tick" style="fill: none;" />
<path d="M336.000000,0.000000 L336.000000,170.500000" class="tick" style="fill: none;" />
<path d="M364.000000,0.000000 L364.000000,170.500000" class="tick" style="fill: none;" />
<path d="M392.000000,0.000000 L392.000000,170.500000" class="tick" style="fill: none;" />
<path d="M420.000000,0.000000 L420.000000,170.500000" class="tick" style="fill: none;" />
<path d="M448.000000,0.000000 L448.000000,170.500000" class="tick" style="fill: none;" />
<path d="M476.000000,0.000000 L476.000000,170.500000" class="tick" style="fill: none;" />
<path d="M504.000000,0.000000 L504.000000,170.500000" class="tick" style="fill: none;" />
<path d="M532.000000,0.000000 L532.000000,170.500000" class="tick" style="fill: none;" />
<path d="M560.000000,0.000000 L560.000000,170.500000" class="tick" style="fill: none;" />
<path d="M588.000000,0.000000 L588.000000,170.500000" class="tick" style="fill: none;" />
<path d="M616.000000,0.000000 L616.000000,170.500000" class="tick" style="fill: none;" />
<path d="M644.000000,0.000000 L644.000000,170.500000" class="tick" style="fill: none;" />
<path d="M672.000000,0.000000 L672.000000,170.500000" class="tick" style="fill: none;" />
<path d="M700.000000,0.000000 L700.000000,170.500000" class="tick" style="fill: none;" />
<path d="M728.000000,0.000000 L728.000000,170.500000" class="tick" style="fill: none;" />
<path d="M756.000000,0.000000 L756.000000,170.500000" class="tick" style="fill: none;" />
<path d="M784.000000,0.000000 L784.000000,170.500000" class="tick" style="fill: none;" />
<path d="M812.000000,0.000000 L812.000000,170.500000" class="tick" style="fill: none;" />
<path d="M840.000000,0.000000 L840.000000,170.500000" class="tick" style="fill: none;" />
<path d="M868.000000,0.000000 L868.000000,170.500000" class="tick" style="fill: none;" />
</g>

<g id="wavelane_1_1"   transform="translate(8.000000, 0.000000)"  >
<g id="_wave" class="wave"  >
<g data-symbol="["  transform="translate(0.000000, 0.000000)"  class="s2-polygon">
<polygon points="168.000000, 50.000000 0.000000, 50.000000 0.000000, 12.500000 168.000000, 12.500000 " class="s2-polygon" style="" />
<path d="M28.000000,50.000000 L0.000000,50.000000 L0.000000,12.500000 L28.000000,12.500000" class="path" style="fill: none;" />
<text x="14.000000" y="6.250000" class="reg-pos" style="stroke: none;">31</text>
<text x="84.000000" y="31.250000" class="reg-data" style="stroke: none;">funct6</text>
</g>
<g data-symbol=":"  transform="translate(28.000000, 0.000000)"  class="s2-polygon">
<path d="M28.000000,43.750000 l0.000000,6.250000 l-28.000000,0.000000 l0.000000,-6.250000" class="path" style="fill: none;"/>
<path d="M28.000000,18.750000 l0.000000,-6.250000 l-28.000000,0.000000 l0.000000,6.250000" class="path" style="fill: none;"/>
<text x="14.000000" y="31.250000" class="reg-data" style="stroke: none;"></text>
</g>
<g data-symbol=":"  transform="translate(56.000000, 0.000000)"  class="s2-polygon">
<path d="M28.000000,43.750000 l0.000000,6.250000 l-28.000000,0.000000 l0.000000,-6.250000" class="path" style="fill: none;"/>
<path d="M28.000000,18.750000 l0.000000,-6.250000 l-28.000000,0.000000 l0.000000,6.250000" class="path" style="fill: none;"/>
<text x="14.000000" y="31.250000" class="reg-data" style="stroke: none;"></text>
</g>
<g data-symbol=":"  transform="translate(84.000000, 0.000000)"  class="s2-polygon">
<path d="M28.000000,43.750000 l0.000000,6.250000 l-28.000000,0.000000 l0.000000,-6.250000" class="path" style="fill: none;"/>
<path d="M28.000000,18.750000 l0.000000,-6.250000 l-28.000000,0.000000 l0.000000,6.250000" class="path" style="fill: none;"/>
<text x="14.000000" y="31.250000" class="reg-data" style="stroke: none;"></text>
</g>
<g data-symbol=":"  transform="translate(112.000000, 0.000000)"  class="s2-polygon">
<path d="M28.000000,43.750000 l0.000000,6.250000 l-28.000000,0.000000 l0.000000,-6.250000" class="path" style="fill: none;"/>
<path d="M28.000000,18.750000 l0.000000,-6.250000 l-28.000000,0.000000 l0.000000,6.250000" class="path" style="fill: none;"/>
<text x="14.000000" y="31.250000" class="reg-data" style="stroke: none;"></text>
</g>
<g data-symbol="]"  transform="translate(140.000000, 0.000000)"  class="s2-polygon">
<path d="M0.000000,50.000000 L28.000000,50.000000 L28.000000,12.500000 L0.000000,12.500000" class="path" style="fill: none;" />
<text x="14.000000" y="31.250000" class="reg-data" style="stroke: none;"></text>
<text x="14.000000" y="6.250000" class="reg-pos" style="stroke: none;">26</text>
</g>
<g data-symbol="b"  transform="translate(168.000000, 0.000000)"  class="s2-polygon">
<polygon points="28.000000, 50.000000 0.000000, 50.000000 0.000000, 12.500000 28.000000, 12.500000 " class="s2-polygon" style="" />
<path d="M0.000000,12.500000 L0.000000,50.000000 L28.000000,50.000000 L28.000000,12.500000 L0.000000,12.500000" class="path" style="fill: none;" />
<text x="14.000000" y="31.250000" class="reg-data" style="stroke: none;">vm</text>
<text x="14.000000" y="6.250000" class="reg-pos" style="stroke: none;">25</text>
</g>
<g data-symbol="["  transform="translate(196.000000, 0.000000)"  class="s2-polygon">
<polygon points="140.000000, 50.000000 0.000000, 50.000000 0.000000, 12.500000 140.000000, 12.500000 " class="s2-polygon" style="" />
<path d="M28.000000,50.000000 L0.000000,50.000000 L0.000000,12.500000 L28.000000,12.500000" class="path" style="fill: none;" />
<text x="14.000000" y="6.250000" class="reg-pos" style="stroke: none;">24</text>
<text x="70.000000" y="31.250000" class="reg-data" style="stroke: none;">vs2</text>
</g>
<g data-symbol=":"  transform="translate(224.000000, 0.000000)"  class="s2-polygon">
<path d="M28.000000,43.750000 l0.000000,6.250000 l-28.000000,0.000000 l0.000000,-6.250000" class="path" style="fill: none;"/>
<path d="M28.000000,18.750000 l0.000000,-6.250000 l-28.000000,0.000000 l0.000000,6.250000" class="path" style="fill: none;"/>
<text x="14.000000" y="31.250000" class="reg-data" style="stroke: none;"></text>
</g>
<g data-symbol=":"  transform="translate(252.000000, 0.000000)"  class="s2-polygon">
<path d="M28.000000,43.750000 l0.000000,6.250000 l-28.000000,0.000000 l0.000000,-6.250000" class="path" style="fill: none;"/>
<path d="M28.000000,18.750000 l0.000000,-6.250000 l-28.000000,0.000000 l0.000000,6.250000" class="path" style="fill: none;"/>
<text x="14.000000" y="31.250000" class="reg-data" style="stroke: none;"></text>
</g>
<g data-symbol=":"  transform="translate(280.000000, 0.000000)"  class="s2-polygon">
<path d="M28.000000,43.750000 l0.000000,6.250000 l-28.000000,0.000000 l0.000000,-6.250000" class="path" style="fill: none;"/>
<path d="M28.000000,18.750000 l0.000000,-6.250000 l-28.000000,0.000000 l0.000000,6.250000" class="path" style="fill: none;"/>
<text x="14.000000" y="31.250000" class="reg-data" style="stroke: none;"></text>
</g>
<g data-symbol="]"  transform="translate(308.000000, 0.000000)"  class="s2-polygon">
<path d="M0.000000,50.000000 L28.000000,50.000000 L28.000000,12.500000 L0.000000,12.500000" class="path" style="fill: none;" />
<text x="14.000000" y="31.250000" class="reg-data" style="stroke: none;"></text>
<text x="14.000000" y="6.250000" class="reg-pos" style="stroke: none;">20</text>
</g>
<g data-symbol="["  transform="translate(336.000000, 0.000000)"  class="s5-polygon">
<polygon points="140.000000, 50.000000 0.000000, 50.000000 0.000000, 12.500000 140.000000, 12.500000 " class="s5-polygon" style="" />
<path d="M28.000000,50.000000 L0.000000,50.000000 L0.000000,12.500000 L28.000000,12.500000" class="path" style="fill: none;" />
<text x="14.000000" y="6.250000" class="reg-pos" style="stroke: none;">19</text>
<text x="70.000000" y="31.250000" class="reg-data" style="stroke: none;">simm5</text>
</g>
<g data-symbol=":"  transform="translate(364.000000, 0.000000)"  class="s5-polygon">
<path d="M28.000000,43.750000 l0.000000,6.250000 l-28.000000,0.000000 l0.000000,-6.250000" class="path" style="fill: none;"/>
<path d="M28.000000,18.750000 l0.000000,-6.250000 l-28.000000,0.000000 l0.000000,6.250000" class="path" style="fill: none;"/>
<text x="14.000000" y="31.250000" class="reg-data" style="stroke: none;"></text>
</g>
<g data-symbol=":"  transform="translate(392.000000, 0.000000)"  class="s5-polygon">
<path d="M28.000000,43.750000 l0.000000,6.250000 l-28.000000,0.000000 l0.000000,-6.250000" class="path" style="fill: none;"/>
<path d="M28.000000,18.750000 l0.000000,-6.250000 l-28.000000,0.000000 l0.000000,6.250000" class="path" style="fill: none;"/>
<text x="14.000000" y="31.250000" class="reg-data" style="stroke: none;"></text>
</g>
<g data-symbol=":"  transform="translate(420.000000, 0.000000)"  class="s5-polygon">
<path d="M28.000000,43.750000 l0.000000,6.250000 l-28.000000,0.000000 l0.000000,-6.250000" class="path" style="fill: none;"/>
<path d="M28.000000,18.750000 l0.000000,-6.250000 l-28.000000,0.000000 l0.000000,6.250000" class="path" style="fill: none;"/>
<text x="14.000000" y="31.250000" class="reg-data" style="stroke: none;"></text>
</g>
<g data-symbol="]"  transform="translate(448.000000, 0.000000)"  class="s5-polygon">
<path d="M0.000000,50.000000 L28.000000,50.000000 L28.000000,12.500000 L0.000000,12.500000" class="path" style="fill: none;" />
<text x="14.000000" y="31.250000" class="reg-data" style="stroke: none;"></text>
<text x="14.000000" y="6.250000" class="reg-pos" style="stroke: none;">15</text>
</g>
<g data-symbol="["  transform="translate(476.000000, 0.000000)"  class="s2-polygon">
<polygon points="84.000000, 50.000000 0.000000, 50.000000 0.000000, 12.500000 84.000000, 12.500000 " class="s2-polygon" style="" />
<path d="M28.000000,50.000000 L0.000000,50.000000 L0.000000,12.500000 L28.000000,12.500000" class="path" style="fill: none;" />
<text x="14.000000" y="6.250000" class="reg-pos" style="stroke: none;">14</text>
<text x="14.000000" y="31.250000" class="reg-data" style="stroke: none;">0</text>
</g>
<g data-symbol=":"  transform="translate(504.000000, 0.000000)"  class="s2-polygon">
<path d="M28.000000,43.750000 l0.000000,6.250000 l-28.000000,0.000000 l0.000000,-6.250000" class="path" style="fill: none;"/>
<path d="M28.000000,18.750000 l0.000000,-6.250000 l-28.000000,0.000000 l0.000000,6.250000" class="path" style="fill: none;"/>
<text x="14.000000" y="31.250000" class="reg-data" style="stroke: none;">1</text>
</g>
<g data-symbol="]"  transform="translate(532.000000, 0.000000)"  class="s2-polygon">
<path d="M0.000000,50.000000 L28.000000,50.000000 L28.000000,12.500000 L0.000000,12.500000" class="path" style="fill: none;" />
<text x="14.000000" y="31.250000" class="reg-data" style="stroke: none;">1</text>
<text x="14.000000" y="6.250000" class="reg-pos" style="stroke: none;">12</text>
</g>
<g data-symbol="["  transform="translate(560.000000, 0.000000)"  class="s2-polygon">
<polygon points="140.000000, 50.000000 0.000000, 50.000000 0.000000, 12.500000 140.000000, 12.500000 " class="s2-polygon" style="" />
<path d="M28.000000,50.000000 L0.000000,50.000000 L0.000000,12.500000 L28.000000,12.500000" class="path" style="fill: none;" />
<text x="14.000000" y="6.250000" class="reg-pos" style="stroke: none;">11</text>
<text x="70.000000" y="31.250000" class="reg-data" style="stroke: none;">vd</text>
</g>
<g data-symbol=":"  transform="translate(588.000000, 0.000000)"  class="s2-polygon">
<path d="M28.000000,43.750000 l0.000000,6.250000 l-28.000000,0.000000 l0.000000,-6.250000" class="path" style="fill: none;"/>
<path d="M28.000000,18.750000 l0.000000,-6.250000 l-28.000000,0.000000 l0.000000,6.250000" class="path" style="fill: none;"/>
<text x="14.000000" y="31.250000" class="reg-data" style="stroke: none;"></text>
</g>
<g data-symbol=":"  transform="translate(616.000000, 0.000000)"  class="s2-polygon">
<path d="M28.000000,43.750000 l0.000000,6.250000 l-28.000000,0.000000 l0.000000,-6.250000" class="path" style="fill: none;"/>
<path d="M28.000000,18.750000 l0.000000,-6.250000 l-28.000000,0.000000 l0.000000,6.250000" class="path" style="fill: none;"/>
<text x="14.000000" y="31.250000" class="reg-data" style="stroke: none;"></text>
</g>
<g data-symbol=":"  transform="translate(644.000000, 0.000000)"  class="s2-polygon">
<path d="M28.000000,43.750000 l0.000000,6.250000 l-28.000000,0.000000 l0.000000,-6.250000" class="path" style="fill: none;"/>
<path d="M28.000000,18.750000 l0.000000,-6.250000 l-28.000000,0.000000 l0.000000,6.250000" class="path" style="fill: none;"/>
<text x="14.000000" y="31.250000" class="reg-data" style="stroke: none;"></text>
</g>
<g data-symbol="]"  transform="translate(672.000000, 0.000000)"  class="s2-polygon">
<path d="M0.000000,50.000000 L28.000000,50.000000 L28.000000,12.500000 L0.000000,12.500000" class="path" style="fill: none;" />
<text x="14.000000" y="31.250000" class="reg-data" style="stroke: none;"></text>
<text x="14.000000" y="6.250000" class="reg-pos" style="stroke: none;">7</text>
</g>
<g data-symbol="["  transform="translate(700.000000, 0.000000)"  class="s2-polygon">
<polygon points="196.000000, 50.000000 0.000000, 50.000000 0.000000, 12.500000 196.000000, 12.500000 " class="s2-polygon" style="" />
<path d="M28.000000,50.000000 L0.000000,50.000000 L0.000000,12.500000 L28.000000,12.500000" class="path" style="fill: none;" />
<text x="98.000000" y="62.000000" class="attr" style="stroke: none;">OPIVI</text>
<text x="14.000000" y="6.250000" class="reg-pos" style="stroke: none;">6</text>
<text x="14.000000" y="31.250000" class="reg-data" style="stroke: none;">0</text>
</g>
<g data-symbol=":"  transform="translate(728.000000, 0.000000)"  class="s2-polygon">
<path d="M28.000000,43.750000 l0.000000,6.250000 l-28.000000,0.000000 l0.000000,-6.250000" class="path" style="fill: none;"/>
<path d="M28.000000,18.750000 l0.000000,-6.250000 l-28.000000,0.000000 l0.000000,6.250000" class="path" style="fill: none;"/>
<text x="14.000000" y="31.250000" class="reg-data" style="stroke: none;">1</text>
</g>
<g data-symbol=":"  transform="translate(756.000000, 0.000000)"  class="s2-polygon">
<path d="M28.000000,43.750000 l0.000000,6.250000 l-28.000000,0.000000 l0.000000,-6.250000" class="path" style="fill: none;"/>
<path d="M28.000000,18.750000 l0.000000,-6.250000 l-28.000000,0.000000 l0.000000,6.250000" class="path" style="fill: none;"/>
<text x="14.000000" y="31.250000" class="reg-data" style="stroke: none;">1</text>
</g>
<g data-symbol=":"  transform="translate(784.000000, 0.000000)"  class="s2-polygon">
<path d="M28.000000,43.750000 l0.000000,6.250000 l-28.000000,0.000000 l0.000000,-6.250000" class="path" style="fill: none;"/>
<path d="M28.000000,18.750000 l0.000000,-6.250000 l-28.000000,0.000000 l0.000000,6.250000" class="path" style="fill: none;"/>
<text x="14.000000" y="31.250000" class="reg-data" style="stroke: none;">0</text>
</g>
<g data-symbol=":"  transform="translate(812.000000, 0.000000)"  class="s2-polygon">
<path d="M28.000000,43.750000 l0.000000,6.250000 l-28.000000,0.000000 l0.000000,-6.250000" class="path" style="fill: none;"/>
<path d="M28.000000,18.750000 l0.000000,-6.250000 l-28.000000,0.000000 l0.000000,6.250000" class="path" style="fill: none;"/>
<text x="14.000000" y="31.250000" class="reg-data" style="stroke: none;">1</text>
</g>
<g data-symbol=":"  transform="translate(840.000000, 0.000000)"  class="s2-polygon">
<path d="M28.000000,43.750000 l0.000000,6.250000 l-28.000000,0.000000 l0.000000,-6.250000" class="path" style="fill: none;"/>
<path d="M28.000000,18.750000 l0.000000,-6.250000 l-28.000000,0.000000 l0.000000,6.250000" class="path" style="fill: none;"/>
<text x="14.000000" y="31.250000" class="reg-data" style="stroke: none;">1</text>
</g>
<g data-symbol="]"  transform="translate(868.000000, 0.000000)"  class="s2-polygon">
<path d="M0.000000,50.000000 L28.000000,50.000000 L28.000000,12.500000 L0.000000,12.500000" class="path" style="fill: none;" />
<text x="14.000000" y="31.250000" class="reg-data" style="stroke: none;">1</text>
<text x="14.000000" y="6.250000" class="reg-pos" style="stroke: none;">0</text>
</g>
</g>
</g>
</g>

</svg>