<svg xmlns="http://www.w3.org/2000/svg" width="402.016000" height="50.000000" viewBox="-1 -1 402.016000 52.000000">
<style>
:root {padding-top: 0.000px;padding-bottom: 0.000px;}
.title {fill: rgba(0, 65, 196, 255);font-weight: 500;font-size: 0.500em;font-family: Fira Mono;text-align: right;text-anchor: end;dominant-baseline: middle;alignment-baseline: central;}
.text {fill: rgba(0, 0, 0, 255);font-size: 0.900em;font-style: normal;font-variant: normal;font-weight: 500;font-stretch: normal;text-align: center;font-family: Fira Mono;}
.attr {fill: rgba(0, 0, 0, 255);font-size: 9.000px;font-style: normal;font-variant: normal;font-weight: 200;font-stretch: normal;text-align: center;font-family: Fira Mono;text-anchor: middle;dominant-baseline: middle;alignment-baseline: central;}
.path {fill: none;stroke: rgba(0, 0, 0, 255);stroke-width: 1;stroke-linecap: round;stroke-linejoin: miter;stroke-miterlimit: 4;stroke-dasharray: none;}
.stripe {fill: none;stroke: rgba(0, 0, 0, 255);stroke-width: 0.5;stroke-linecap: round;stroke-linejoin: miter;stroke-miterlimit: 4;stroke-dasharray: none;}
.data {fill: rgba(0, 0, 0, 255);font-size: 0.400em;font-style: normal;font-variant: normal;font-weight: 500;font-stretch: normal;text-align: center;font-family: Fira Mono;text-anchor: middle;dominant-baseline: middle;alignment-baseline: central;}
.hatch {fill: url(#diagonalHatch);}
.s2-polygon {fill: rgba(0, 0, 0, 0);stroke: none;}
.s3-polygon {fill: rgba(255, 255, 176, 255);stroke: none;}
.s4-polygon {fill: rgba(255, 224, 185, 255);stroke: none;}
.s5-polygon {fill: rgba(185, 224, 255, 255);stroke: none;}
.s6-polygon {fill: rgba(0, 53, 75, 200);stroke: none;}
.s7-polygon {fill: rgba(101, 187, 169, 200);stroke: none;}
.s8-polygon {fill: rgba(221, 65, 54, 200);stroke: none;}
.s9-polygon {fill: rgba(237, 165, 34, 200);stroke: none;}
.tick {stroke: rgba(136, 136, 136, 128);stroke-width: 0.5;stroke-dasharray: 1, 3;}
.big_gap {stroke: rgba(136, 136, 136, 255);stroke-width: 0.5;stroke-dasharray: none;}
.border {stroke-width: 1.25;stroke: rgba(0, 0, 0, 255);}
.hide {fill: rgba(255, 255, 255, 255);stroke: rgba(255, 255, 255, 255);stroke-width: 2;}
.edge {fill: none;stroke: rgba(0, 0, 255, 255);stroke-width: 1;}
.edge-arrow {fill: rgba(0, 0, 255, 255);stroke: rgba(0, 0, 255, 255);overflow: visible;}
.edge-text {font-family: Fira Mono;font-size: 0.300em;fill: rgba(0, 0, 0, 255);filter: #solid;transform: translate(0, 2.5px);text-anchor: middle;}
.edge-background {fill: rgba(255, 255, 255, 255);stroke: rgba(255, 255, 255, 255);stroke-width: 2;}
.arrow {fill: rgba(0, 0, 0, 255);stroke: none;}
.h1 {fill: rgba(0, 0, 0, 255);font-size: 12.000px;font-weight: bold;font-family: Fira Mono;text-align: left;dominant-baseline: middle;}
.h2 {fill: rgba(0, 0, 0, 255);font-size: 10.000px;font-weight: bold;font-family: Fira Mono;text-align: left;dominant-baseline: middle;}
.h3 {fill: rgba(0, 0, 0, 255);font-size: 8.000px;font-weight: bold;font-family: Fira Mono;text-align: left;dominant-baseline: middle;}
.h4 {fill: rgba(0, 0, 0, 255);font-size: 6.000px;font-weight: bold;font-family: Fira Mono;text-align: left;dominant-baseline: middle;}
.h5 {fill: rgba(0, 0, 0, 255);font-size: 5.000px;font-weight: bold;font-family: Fira Mono;text-align: left;dominant-baseline: middle;}
.h6 {fill: rgba(0, 0, 0, 255);font-size: 4.000px;font-weight: bold;font-family: Fira Mono;text-align: left;dominant-baseline: middle;}
.reg-data {fill: rgba(0, 0, 0, 255);font-size: 0.800em;font-style: normal;font-variant: normal;font-weight: 500;font-stretch: normal;text-align: center;font-family: Fira Mono;text-anchor: middle;dominant-baseline: middle;alignment-baseline: central;}
.reg-pos {fill: rgba(0, 0, 0, 255);font-size: 0.600em;font-style: normal;font-variant: normal;font-weight: 500;font-stretch: normal;text-align: center;font-family: Fira Mono;text-anchor: middle;dominant-baseline: middle;alignment-baseline: central;}
.wave {mask: url(#wavezone);}
</style>

<defs>
    <pattern id="diagonalHatch" width="5" height="5" patternTransform="rotate(45 0 0)" patternUnits="userSpaceOnUse">
        <line x1="0" y1="0" x2="0" y2="5" style="stroke:black; stroke-width:1" />
    </pattern>
    <marker id="arrow" viewBox="0 0 10 10" refX="10" refY="5"
        markerWidth="7" markerHeight="7" markerUnits="userSpaceOnUse"
        orient="auto-start-reverse" style="fill:#00F;">
      <path d="M 0 0 L 10 5 L 0 10 z" />
    </marker>
    <filter x="0" y="0" width="1" height="1" id="solid">
      <feFlood flood-color="white"/>
      <feComposite in="SourceGraphic"/>
    </filter>
    <mask id="wavezone">
        <rect x="-40" y="-8" width="40" height="70" fill="black" />
        <rect x="0" y="-8" width="360" height="70" fill="white" />
    </mask>
</defs>
<g id="a"   >
<g id="ticks_1"   transform="translate(40.016000, 0.000000)"  >
<path d="M0.000000,0.000000 L0.000000,50.000000" class="tick" style="fill: none;" />
<path d="M40.000000,0.000000 L40.000000,50.000000" class="tick" style="fill: none;" />
<path d="M80.000000,0.000000 L80.000000,50.000000" class="tick" style="fill: none;" />
<path d="M120.000000,0.000000 L120.000000,50.000000" class="tick" style="fill: none;" />
<path d="M160.000000,0.000000 L160.000000,50.000000" class="tick" style="fill: none;" />
<path d="M200.000000,0.000000 L200.000000,50.000000" class="tick" style="fill: none;" />
<path d="M240.000000,0.000000 L240.000000,50.000000" class="tick" style="fill: none;" />
<path d="M280.000000,0.000000 L280.000000,50.000000" class="tick" style="fill: none;" />
<path d="M320.000000,0.000000 L320.000000,50.000000" class="tick" style="fill: none;" />
</g>

<g id="pulses"   transform="translate(40.016000, 0.000000)"  >
<text x="-10.000000" y="10.000000" class="title" style="stroke: none;">pulses</text>
<g id="pulses_wave" class="wave"  >
<g data-symbol="l"  transform="translate(0.000000, 0.000000)"  class="">
<path d="M0.000000,20.000000 L0.000000,20.000000 L40.000000,20.000000" class="path" style="fill: none;" />
</g>
<g data-symbol="h"  transform="translate(40.000000, 0.000000)"  class="">
<path d="M0.000000,20.000000 L0.000000,0.000000 L40.000000,0.000000" class="path" style="fill: none;" />
</g>
<g data-symbol="l"  transform="translate(80.000000, 0.000000)"  class="">
<path d="M0.000000,0.000000 L0.000000,20.000000 L40.000000,20.000000" class="path" style="fill: none;" />
</g>
<g data-symbol="l"  transform="translate(120.000000, 0.000000)"  class="">
<path d="M0.000000,20.000000 L0.000000,20.000000 L40.000000,20.000000" class="path" style="fill: none;" />
</g>
<g data-symbol="l"  transform="translate(160.000000, 0.000000)"  class="">
<path d="M0.000000,20.000000 L0.000000,20.000000 L40.000000,20.000000" class="path" style="fill: none;" />
</g>
<g data-symbol="l"  transform="translate(200.000000, 0.000000)"  class="">
<path d="M0.000000,20.000000 L0.000000,20.000000 L40.000000,20.000000" class="path" style="fill: none;" />
</g>
<g data-symbol="h"  transform="translate(240.000000, 0.000000)"  class="">
<path d="M0.000000,20.000000 L0.000000,0.000000 L40.000000,0.000000" class="path" style="fill: none;" />
</g>
<g data-symbol="l"  transform="translate(280.000000, 0.000000)"  class="">
<path d="M0.000000,0.000000 L0.000000,20.000000 L40.000000,20.000000" class="path" style="fill: none;" />
</g>
<g data-symbol="l"  transform="translate(320.000000, 0.000000)"  class="">
<path d="M0.000000,20.000000 L0.000000,20.000000 L40.000000,20.000000" class="path" style="fill: none;" />
</g>
</g>
</g>
<g id="toggle"   transform="translate(40.016000, 25.000000)"  >
<text x="-10.000000" y="10.000000" class="title" style="stroke: none;">toggle</text>
<g id="toggle_wave" class="wave"  >
<g data-symbol="l"  transform="translate(0.000000, 0.000000)"  class="">
<path d="M0.000000,20.000000 L0.000000,20.000000 L40.000000,20.000000" class="path" style="fill: none;" />
</g>
<g data-symbol="l"  transform="translate(40.000000, 0.000000)"  class="">
<path d="M0.000000,20.000000 L0.000000,20.000000 L40.000000,20.000000" class="path" style="fill: none;" />
</g>
<g data-symbol="h"  transform="translate(80.000000, 0.000000)"  class="">
<path d="M0.000000,20.000000 L0.000000,0.000000 L40.000000,0.000000" class="path" style="fill: none;" />
</g>
<g data-symbol="h"  transform="translate(120.000000, 0.000000)"  class="">
<path d="M0.000000,0.000000 L0.000000,0.000000 L40.000000,0.000000" class="path" style="fill: none;" />
</g>
<g data-symbol="h"  transform="translate(160.000000, 0.000000)"  class="">
<path d="M0.000000,0.000000 L0.000000,0.000000 L40.000000,0.000000" class="path" style="fill: none;" />
</g>
<g data-symbol="h"  transform="translate(200.000000, 0.000000)"  class="">
<path d="M0.000000,0.000000 L0.000000,0.000000 L40.000000,0.000000" class="path" style="fill: none;" />
</g>
<g data-symbol="h"  transform="translate(240.000000, 0.000000)"  class="">
<path d="M0.000000,0.000000 L0.000000,0.000000 L40.000000,0.000000" class="path" style="fill: none;" />
</g>
<g data-symbol="l"  transform="translate(280.000000, 0.000000)"  class="">
<path d="M0.000000,0.000000 L0.000000,20.000000 L40.000000,20.000000" class="path" style="fill: none;" />
</g>
<g data-symbol="l"  transform="translate(320.000000, 0.000000)"  class="">
<path d="M0.000000,20.000000 L0.000000,20.000000 L40.000000,20.000000" class="path" style="fill: none;" />
</g>
</g>
</g>
</g>
<path d="M80.016000,10.000000 L120.016000,35.000000" class="edge" style="fill: none;"/>
<path d="M-3.5 -3.5 L0 3.5 L3.5 -3.5 L0 -2 L-3.5 -3.5" transform="translate(117.472005, 33.410003) rotate(-57.994590, 0, 0)" class="edge-arrow" style=""/>

<path d="M80.016000,10.000000 L280.016000,10.000000" class="edge" style="fill: none;"/>
<path d="M-3.5 -3.5 L0 3.5 L3.5 -3.5 L0 -2 L-3.5 -3.5" transform="translate(83.016000, 10.000000) rotate(90.000152, 0, 0)" class="edge-arrow" style=""/>
<path d="M-3.5 -3.5 L0 3.5 L3.5 -3.5 L0 -2 L-3.5 -3.5" transform="translate(277.016000, 10.000000) rotate(-90.000000, 0, 0)" class="edge-arrow" style=""/>
<polygon points="170.425600, 7.600000 170.425600, 12.400000 189.635200, 12.400000 189.635200, 7.600000 170.425600, 7.600000 " class="edge-background" style="" />
<text x="180.016000" y="10.000000" class="edge-text" style="stroke: none;">100 us</text>

<path d="M280.016000,10.000000 C316.016000,10.000000 284.016000,35.000000 320.016000,35.000000" class="edge" style="fill: none;"/>
<path d="M-3.5 -3.5 L0 3.5 L3.5 -3.5 L0 -2 L-3.5 -3.5" transform="translate(317.016000, 35.000000) rotate(-90.000000, 0, 0)" class="edge-arrow" style=""/>

</svg>