<svg xmlns="http://www.w3.org/2000/svg" width="441.000000" height="300.000000" viewBox="-1 -1 442.000000 302.000000">
<style>
:root {padding-top: 0.000px;padding-bottom: 0.000px;}
.title {fill: rgba(0, 65, 196, 255);font-weight: 500;font-size: 0.500em;font-family: Fira Mono;text-align: right;text-anchor: end;dominant-baseline: middle;alignment-baseline: central;}
.text {fill: rgba(0, 0, 0, 255);font-size: 0.900em;font-style: normal;font-variant: normal;font-weight: 500;font-stretch: normal;text-align: center;font-family: Fira Mono;}
.attr {fill: rgba(0, 0, 0, 255);font-size: 9.000px;font-style: normal;font-variant: normal;font-weight: 200;font-stretch: normal;text-align: center;font-family: Fira Mono;text-anchor: middle;dominant-baseline: middle;alignment-baseline: central;}
.path {fill: none;stroke: rgba(0, 0, 0, 255);stroke-width: 1;stroke-linecap: round;stroke-linejoin: miter;stroke-miterlimit: 4;stroke-dasharray: none;}
.stripe {fill: none;stroke: rgba(0, 0, 0, 255);stroke-width: 0.5;stroke-linecap: round;stroke-linejoin: miter;stroke-miterlimit: 4;stroke-dasharray: none;}
.data {fill: rgba(0, 0, 0, 255);font-size: 0.400em;font-style: normal;font-variant: normal;font-weight: 500;font-stretch: normal;text-align: center;font-family: Fira Mono;text-anchor: middle;dominant-baseline: middle;alignment-baseline: central;}
.hatch {fill: url(#diagonalHatch);}
.s2-polygon {fill: rgba(0, 0, 0, 0);stroke: none;}
.s3-polygon {fill: rgba(255, 255, 176, 255);stroke: none;}
.s4-polygon {fill: rgba(255, 224, 185, 255);stroke: none;}
.s5-polygon {fill: rgba(185, 224, 255, 255);stroke: none;}
.s6-polygon {fill: rgba(0, 53, 75, 200);stroke: none;}
.s7-polygon {fill: rgba(101, 187, 169, 200);stroke: none;}
.s8-polygon {fill: rgba(221, 65, 54, 200);stroke: none;}
.s9-polygon {fill: rgba(237, 165, 34, 200);stroke: none;}
.tick {stroke: rgba(136, 136, 136, 128);stroke-width: 0.5;stroke-dasharray: 1, 3;}
.big_gap {stroke: rgba(136, 136, 136, 255);stroke-width: 0.5;stroke-dasharray: none;}
.border {stroke-width: 1.25;stroke: rgba(0, 0, 0, 255);}
.hide {fill: rgba(255, 255, 255, 255);stroke: rgba(255, 255, 255, 255);stroke-width: 2;}
.edge {fill: none;stroke: rgba(0, 0, 255, 255);stroke-width: 1;}
.edge-arrow {fill: rgba(0, 0, 255, 255);stroke: none;overflow: visible;}
.edge-text {font-family: Fira Mono;font-size: 0.625em;fill: rgba(0, 0, 0, 255);filter: #solid;transform: translate(0, 2.5px);text-anchor: middle;}
.edge-background {fill: rgba(255, 255, 255, 255);stroke: rgba(255, 255, 255, 255);stroke-width: 2;}
.arrow {fill: rgba(0, 0, 0, 255);stroke: none;}
.h1 {fill: rgba(0, 0, 0, 255);font-size: 12.000px;font-weight: bold;font-family: Fira Mono;text-align: left;dominant-baseline: middle;}
.h2 {fill: rgba(0, 0, 0, 255);font-size: 10.000px;font-weight: bold;font-family: Fira Mono;text-align: left;dominant-baseline: middle;}
.h3 {fill: rgba(0, 0, 0, 255);font-size: 8.000px;font-weight: bold;font-family: Fira Mono;text-align: left;dominant-baseline: middle;}
.h4 {fill: rgba(0, 0, 0, 255);font-size: 6.000px;font-weight: bold;font-family: Fira Mono;text-align: left;dominant-baseline: middle;}
.h5 {fill: rgba(0, 0, 0, 255);font-size: 5.000px;font-weight: bold;font-family: Fira Mono;text-align: left;dominant-baseline: middle;}
.h6 {fill: rgba(0, 0, 0, 255);font-size: 4.000px;font-weight: bold;font-family: Fira Mono;text-align: left;dominant-baseline: middle;}
.reg-data {fill: rgba(0, 0, 0, 255);font-size: 0.800em;font-style: normal;font-variant: normal;font-weight: 500;font-stretch: normal;text-align: center;font-family: Fira Mono;text-anchor: middle;dominant-baseline: middle;alignment-baseline: central;}
.reg-pos {fill: rgba(0, 0, 0, 255);font-size: 0.600em;font-style: normal;font-variant: normal;font-weight: 500;font-stretch: normal;text-align: center;font-family: Fira Mono;text-anchor: middle;dominant-baseline: middle;alignment-baseline: central;}</style>

<defs>
    <pattern id="diagonalHatch" width="5" height="5" patternTransform="rotate(45 0 0)" patternUnits="userSpaceOnUse">
        <line x1="0" y1="0" x2="0" y2="5" style="stroke:black; stroke-width:1" />
    </pattern>
    <marker id="arrow" viewBox="0 0 10 10" refX="10" refY="5"
        markerWidth="7" markerHeight="7" markerUnits="userSpaceOnUse"
        orient="auto-start-reverse" style="fill:#00F;">
      <path d="M 0 0 L 10 5 L 0 10 z" />
    </marker>
    <filter x="0" y="0" width="1" height="1" id="solid">
      <feFlood flood-color="white"/>
      <feComposite in="SourceGraphic"/>
    </filter>
</defs>
<g id="a"  >
<g id="ticks_5"  transform="translate(110.000000, 0.000000)"  >
<path d="M0.000000,0.000000 L0.000000,300.000000" class="tick" style="fill: none;" />
<path d="M40.000000,0.000000 L40.000000,300.000000" class="tick" style="fill: none;" />
<path d="M80.000000,0.000000 L80.000000,300.000000" class="tick" style="fill: none;" />
<path d="M120.000000,0.000000 L120.000000,300.000000" class="tick" style="fill: none;" />
<path d="M160.000000,0.000000 L160.000000,300.000000" class="tick" style="fill: none;" />
<path d="M200.000000,0.000000 L200.000000,300.000000" class="tick" style="fill: none;" />
<path d="M240.000000,0.000000 L240.000000,300.000000" class="tick" style="fill: none;" />
<path d="M280.000000,0.000000 L280.000000,300.000000" class="tick" style="fill: none;" />
</g>

<g id="clk"  transform="translate(110.000000, 0.000000)"  >
<text x="-10.000000" y="10.000000" class="title" style="stroke: none;">clk</text>
<g data-symbol="p"  transform="translate(0.000000, 0.000000)"  class="">
<path d="M0.000000,20.000000 L0.000000,0.000000 L20.000000,0.000000 L20.000000,20.000000 L40.000000,20.000000 L40.000000,10.000000" class="path" style="fill: none;" />
</g>
<g data-symbol="p"  transform="translate(40.000000, 0.000000)"  class="">
<path d="M0.000000,20.000000 L0.000000,0.000000 L20.000000,0.000000 L20.000000,20.000000 L40.000000,20.000000 L40.000000,10.000000" class="path" style="fill: none;" />
</g>
<g data-symbol="p"  transform="translate(80.000000, 0.000000)"  class="">
<path d="M0.000000,20.000000 L0.000000,0.000000 L20.000000,0.000000 L20.000000,20.000000 L40.000000,20.000000 L40.000000,10.000000" class="path" style="fill: none;" />
</g>
<g data-symbol="P"  transform="translate(120.000000, 0.000000)"  class="">
<path d="M0.000000,20.000000 L0.000000,0.000000 L20.000000,0.000000 L20.000000,20.000000 L40.000000,20.000000 L40.000000,10.000000" class="path" style="fill: none;" />
<path d="M-3.5 -3.5 L0 3.5 L3.5 -3.5 L0 -2 L-3.5 -3.5" transform="translate(0.000000, 10.000000) rotate(-180.000000, 0, 0)" class="arrow" style=""/>
</g>
<g data-symbol="p"  transform="translate(160.000000, 0.000000)"  class="">
<path d="M0.000000,20.000000 L0.000000,0.000000 L20.000000,0.000000 L20.000000,20.000000 L40.000000,20.000000 L40.000000,10.000000" class="path" style="fill: none;" />
</g>
<g data-symbol="p"  transform="translate(200.000000, 0.000000)"  class="">
<path d="M0.000000,20.000000 L0.000000,0.000000 L20.000000,0.000000 L20.000000,20.000000 L40.000000,20.000000 L40.000000,10.000000" class="path" style="fill: none;" />
</g>
<g data-symbol="p"  transform="translate(240.000000, 0.000000)"  class="">
<path d="M0.000000,20.000000 L0.000000,0.000000 L20.000000,0.000000 L20.000000,20.000000 L40.000000,20.000000 L40.000000,10.000000" class="path" style="fill: none;" />
</g>
<g data-symbol="P"  transform="translate(280.000000, 0.000000)"  class="">
<path d="M0.000000,20.000000 L0.000000,0.000000 L20.000000,0.000000 L20.000000,20.000000 L40.000000,20.000000 L40.000000,10.000000" class="path" style="fill: none;" />
<path d="M-3.5 -3.5 L0 3.5 L3.5 -3.5 L0 -2 L-3.5 -3.5" transform="translate(0.000000, 10.000000) rotate(-180.000000, 0, 0)" class="arrow" style=""/>
</g>
</g>
<g id="Master"  >
<text x="0.000000" y="38.000000" class="h2" style="stroke: none;">Master</text>
<path d="M0.000000,45.000000 L430.000000,45.000000" class="border ctx-y" style="fill: none;" />
<g id="io_address"  transform="translate(110.000000, 50.000000)"  >
<text x="-10.000000" y="10.000000" class="title" style="stroke: none;">io_address</text>
<g data-symbol="x"  transform="translate(0.000000, 0.000000)"  class="">
<polygon points="0.000000, 0.000000 37.000000, 0.000000 40.000000, 10.000000 37.000000, 20.000000 0.000000, 20.000000 " class="hatch" style="" />
<path d="M0.000000,0.000000 L37.000000,0.000000 L40.000000,10.000000 L37.000000,20.000000 L0.000000,20.000000" class="path" style="fill: none;" />
</g>
<g data-symbol="3"  transform="translate(40.000000, 0.000000)"  class="">
<polygon points="0.000000, 10.000000 3.000000, 0.000000 77.000000, 0.000000 80.000000, 10.000000 80.000000, 10.000000 77.000000, 20.000000 3.000000, 20.000000 0.000000, 10.000000 " class="s3-polygon" style="" />
<path d="M0.000000,10.000000 L3.000000,0.000000 L77.000000,0.000000 L80.000000,10.000000 L80.000000,10.000000 L77.000000,20.000000 L3.000000,20.000000 L0.000000,10.000000" class="path" style="fill: none;" />
<text x="40.000000" y="10.000000" class="data" style="stroke: none;">A1</text>
</g>
<g data-symbol="x"  transform="translate(120.000000, 0.000000)"  class="">
<polygon points="0.000000, 10.000000 3.000000, 0.000000 37.000000, 0.000000 40.000000, 10.000000 40.000000, 10.000000 37.000000, 20.000000 3.000000, 20.000000 0.000000, 10.000000 " class="hatch" style="" />
<path d="M0.000000,10.000000 L3.000000,0.000000 L37.000000,0.000000 L40.000000,10.000000 L40.000000,10.000000 L37.000000,20.000000 L3.000000,20.000000 L0.000000,10.000000" class="path" style="fill: none;" />
</g>
<g data-symbol="4"  transform="translate(160.000000, 0.000000)"  class="">
<polygon points="0.000000, 10.000000 3.000000, 0.000000 117.000000, 0.000000 120.000000, 10.000000 120.000000, 10.000000 117.000000, 20.000000 3.000000, 20.000000 0.000000, 10.000000 " class="s4-polygon" style="" />
<path d="M0.000000,10.000000 L3.000000,0.000000 L117.000000,0.000000 L120.000000,10.000000 L120.000000,10.000000 L117.000000,20.000000 L3.000000,20.000000 L0.000000,10.000000" class="path" style="fill: none;" />
<text x="60.000000" y="10.000000" class="data" style="stroke: none;">A2</text>
</g>
<g data-symbol="x"  transform="translate(280.000000, 0.000000)"  class="">
<polygon points="0.000000, 10.000000 3.000000, 0.000000 37.000000, 0.000000 40.000000, 10.000000 40.000000, 10.000000 37.000000, 20.000000 3.000000, 20.000000 0.000000, 10.000000 " class="hatch" style="" />
<path d="M0.000000,10.000000 L3.000000,0.000000 L37.000000,0.000000 L40.000000,10.000000 L40.000000,10.000000 L37.000000,20.000000 L3.000000,20.000000 L0.000000,10.000000" class="path" style="fill: none;" />
</g>
</g>
<g id="io_wdata"  transform="translate(110.000000, 75.000000)"  >
<text x="-10.000000" y="10.000000" class="title" style="stroke: none;">io_wdata</text>
<g data-symbol="x"  transform="translate(0.000000, 0.000000)"  class="">
<polygon points="0.000000, 0.000000 37.000000, 0.000000 40.000000, 10.000000 37.000000, 20.000000 0.000000, 20.000000 " class="hatch" style="" />
<path d="M0.000000,0.000000 L37.000000,0.000000 L40.000000,10.000000 L37.000000,20.000000 L0.000000,20.000000" class="path" style="fill: none;" />
</g>
<g data-symbol="3"  transform="translate(40.000000, 0.000000)"  class="">
<polygon points="0.000000, 10.000000 3.000000, 0.000000 77.000000, 0.000000 80.000000, 10.000000 80.000000, 10.000000 77.000000, 20.000000 3.000000, 20.000000 0.000000, 10.000000 " class="s3-polygon" style="" />
<path d="M0.000000,10.000000 L3.000000,0.000000 L77.000000,0.000000 L80.000000,10.000000 L80.000000,10.000000 L77.000000,20.000000 L3.000000,20.000000 L0.000000,10.000000" class="path" style="fill: none;" />
<text x="40.000000" y="10.000000" class="data" style="stroke: none;">D1</text>
</g>
<g data-symbol="x"  transform="translate(120.000000, 0.000000)"  class="">
<polygon points="0.000000, 10.000000 3.000000, 0.000000 197.000000, 0.000000 200.000000, 10.000000 200.000000, 10.000000 197.000000, 20.000000 3.000000, 20.000000 0.000000, 10.000000 " class="hatch" style="" />
<path d="M0.000000,10.000000 L3.000000,0.000000 L197.000000,0.000000 L200.000000,10.000000 L200.000000,10.000000 L197.000000,20.000000 L3.000000,20.000000 L0.000000,10.000000" class="path" style="fill: none;" />
</g>
</g>
<g id="control"  >
<text x="0.000000" y="115.000000" class="h3" style="stroke: none;">control</text>
<g id="io_write"  transform="translate(110.000000, 125.000000)"  >
<text x="-10.000000" y="10.000000" class="title" style="stroke: none;">io_write</text>
<g data-symbol="0"  transform="translate(0.000000, 0.000000)"  class="">
<path d="M0.000000,20.000000 L0.000000,20.000000 L0.000000,20.000000 L40.000000,20.000000" class="path" style="fill: none;" />
</g>
<g data-symbol="1"  transform="translate(40.000000, 0.000000)"  class="">
<path d="M0.000000,20.000000 L0.000000,20.000000 L0.000000,0.000000 L80.000000,0.000000" class="path" style="fill: none;" />
</g>
<g data-symbol="0"  transform="translate(120.000000, 0.000000)"  class="">
<path d="M0.000000,0.000000 L0.000000,0.000000 L0.000000,20.000000 L200.000000,20.000000" class="path" style="fill: none;" />
</g>
</g>
<g id="io_read"  transform="translate(110.000000, 150.000000)"  >
<text x="-10.000000" y="10.000000" class="title" style="stroke: none;">io_read</text>
<g data-symbol="0"  transform="translate(0.000000, 0.000000)"  class="">
<path d="M0.000000,20.000000 L0.000000,20.000000 L0.000000,20.000000 L160.000000,20.000000" class="path" style="fill: none;" />
</g>
<g data-symbol="1"  transform="translate(160.000000, 0.000000)"  class="">
<path d="M0.000000,20.000000 L0.000000,20.000000 L0.000000,0.000000 L120.000000,0.000000" class="path" style="fill: none;" />
</g>
<g data-symbol="0"  transform="translate(280.000000, 0.000000)"  class="">
<path d="M0.000000,0.000000 L0.000000,0.000000 L0.000000,20.000000 L40.000000,20.000000" class="path" style="fill: none;" />
</g>
</g>
</g>
</g>
<g id="Slave"  >
<text x="0.000000" y="213.000000" class="h2" style="stroke: none;">Slave</text>
<path d="M0.000000,220.000000 L430.000000,220.000000" class="border ctx-y" style="fill: none;" />
<g id="io_rdata"  transform="translate(110.000000, 225.000000)"  >
<text x="-10.000000" y="10.000000" class="title" style="stroke: none;">io_rdata</text>
<g data-symbol="x"  transform="translate(0.000000, 0.000000)"  class="">
<polygon points="0.000000, 0.000000 237.000000, 0.000000 240.000000, 10.000000 237.000000, 20.000000 0.000000, 20.000000 " class="hatch" style="" />
<path d="M0.000000,0.000000 L237.000000,0.000000 L240.000000,10.000000 L237.000000,20.000000 L0.000000,20.000000" class="path" style="fill: none;" />
</g>
<g data-symbol="4"  transform="translate(240.000000, 0.000000)"  class="">
<polygon points="0.000000, 10.000000 3.000000, 0.000000 37.000000, 0.000000 40.000000, 10.000000 40.000000, 10.000000 37.000000, 20.000000 3.000000, 20.000000 0.000000, 10.000000 " class="s4-polygon" style="" />
<path d="M0.000000,10.000000 L3.000000,0.000000 L37.000000,0.000000 L40.000000,10.000000 L40.000000,10.000000 L37.000000,20.000000 L3.000000,20.000000 L0.000000,10.000000" class="path" style="fill: none;" />
<text x="20.000000" y="10.000000" class="data" style="stroke: none;">Q2</text>
</g>
<g data-symbol="x"  transform="translate(280.000000, 0.000000)"  class="">
<polygon points="0.000000, 10.000000 3.000000, 0.000000 37.000000, 0.000000 40.000000, 10.000000 40.000000, 10.000000 37.000000, 20.000000 3.000000, 20.000000 0.000000, 10.000000 " class="hatch" style="" />
<path d="M0.000000,10.000000 L3.000000,0.000000 L37.000000,0.000000 L40.000000,10.000000 L40.000000,10.000000 L37.000000,20.000000 L3.000000,20.000000 L0.000000,10.000000" class="path" style="fill: none;" />
</g>
</g>
<g id="control"  >
<text x="0.000000" y="265.000000" class="h3" style="stroke: none;">control</text>
<g id="io_valid"  transform="translate(110.000000, 275.000000)"  >
<text x="-10.000000" y="10.000000" class="title" style="stroke: none;">io_valid</text>
<g data-symbol="x"  transform="translate(0.000000, 0.000000)"  class="">
<polygon points="0.000000, 0.000000 37.000000, 0.000000 40.000000, 20.000000 37.000000, 20.000000 0.000000, 20.000000 " class="hatch" style="" />
<path d="M0.000000,0.000000 L37.000000,0.000000 L40.000000,20.000000 L37.000000,20.000000 L0.000000,20.000000" class="path" style="fill: none;" />
</g>
<g data-symbol="0"  transform="translate(40.000000, 0.000000)"  class="">
<path d="M0.000000,20.000000 L0.000000,20.000000 L0.000000,20.000000 L40.000000,20.000000" class="path" style="fill: none;" />
</g>
<g data-symbol="1"  transform="translate(80.000000, 0.000000)"  class="">
<path d="M0.000000,20.000000 L0.000000,20.000000 L0.000000,0.000000 L40.000000,0.000000" class="path" style="fill: none;" />
</g>
<g data-symbol="x"  transform="translate(120.000000, 0.000000)"  class="">
<polygon points="0.000000, 0.000000 3.000000, 0.000000 37.000000, 0.000000 40.000000, 20.000000 40.000000, 20.000000 37.000000, 20.000000 3.000000, 20.000000 0.000000, 0.000000 " class="hatch" style="" />
<path d="M0.000000,0.000000 L3.000000,0.000000 L37.000000,0.000000 L40.000000,20.000000 L40.000000,20.000000 L37.000000,20.000000 L3.000000,20.000000 L0.000000,0.000000" class="path" style="fill: none;" />
</g>
<g data-symbol="0"  transform="translate(160.000000, 0.000000)"  class="">
<path d="M0.000000,20.000000 L0.000000,20.000000 L0.000000,20.000000 L80.000000,20.000000" class="path" style="fill: none;" />
</g>
<g data-symbol="1"  transform="translate(240.000000, 0.000000)"  class="">
<path d="M0.000000,20.000000 L0.000000,20.000000 L0.000000,0.000000 L40.000000,0.000000" class="path" style="fill: none;" />
</g>
<g data-symbol="x"  transform="translate(280.000000, 0.000000)"  class="">
<polygon points="0.000000, 0.000000 3.000000, 0.000000 37.000000, 0.000000 40.000000, 10.000000 40.000000, 10.000000 37.000000, 20.000000 3.000000, 20.000000 0.000000, 0.000000 " class="hatch" style="" />
<path d="M0.000000,0.000000 L3.000000,0.000000 L37.000000,0.000000 L40.000000,10.000000 L40.000000,10.000000 L37.000000,20.000000 L3.000000,20.000000 L0.000000,0.000000" class="path" style="fill: none;" />
</g>
</g>
</g>
</g>
</g>

</svg>