<svg xmlns="http://www.w3.org/2000/svg" width="1008.000000" height="25.000000" viewBox="-1 -1 1009.000000 27.000000">
<style>
:root {padding-top: 0.000px;padding-bottom: 0.000px;}
.title {fill: rgba(0, 65, 196, 255);font-weight: 500;font-size: 0.500em;font-family: Fira Mono;text-align: right;text-anchor: end;dominant-baseline: middle;alignment-baseline: central;}
.text {fill: rgba(0, 0, 0, 255);font-size: 0.900em;font-style: normal;font-variant: normal;font-weight: 500;font-stretch: normal;text-align: center;font-family: Fira Mono;}
.attr {fill: rgba(0, 0, 0, 255);font-size: 9.000px;font-style: normal;font-variant: normal;font-weight: 200;font-stretch: normal;text-align: center;font-family: Fira Mono;text-anchor: middle;dominant-baseline: middle;alignment-baseline: central;}
.path {fill: none;stroke: rgba(0, 0, 0, 255);stroke-width: 1;stroke-linecap: round;stroke-linejoin: miter;stroke-miterlimit: 4;stroke-dasharray: none;}
.stripe {fill: none;stroke: rgba(0, 0, 0, 255);stroke-width: 0.5;stroke-linecap: round;stroke-linejoin: miter;stroke-miterlimit: 4;stroke-dasharray: none;}
.data {fill: rgba(0, 0, 0, 255);font-size: 0.400em;font-style: normal;font-variant: normal;font-weight: 500;font-stretch: normal;text-align: center;font-family: Fira Mono;text-anchor: middle;dominant-baseline: middle;alignment-baseline: central;}
.hatch {fill: url(#diagonalHatch);}
.s2-polygon {fill: rgba(0, 0, 0, 0);stroke: none;}
.s3-polygon {fill: rgba(255, 255, 176, 255);stroke: none;}
.s4-polygon {fill: rgba(255, 224, 185, 255);stroke: none;}
.s5-polygon {fill: rgba(185, 224, 255, 255);stroke: none;}
.s6-polygon {fill: rgba(0, 53, 75, 200);stroke: none;}
.s7-polygon {fill: rgba(101, 187, 169, 200);stroke: none;}
.s8-polygon {fill: rgba(221, 65, 54, 200);stroke: none;}
.s9-polygon {fill: rgba(237, 165, 34, 200);stroke: none;}
.tick {stroke: rgba(136, 136, 136, 128);stroke-width: 0.5;stroke-dasharray: 1, 3;}
.big_gap {stroke: rgba(136, 136, 136, 255);stroke-width: 0.5;stroke-dasharray: none;}
.border {stroke-width: 1.25;stroke: rgba(0, 0, 0, 255);}
.hide {fill: rgba(255, 255, 255, 255);stroke: rgba(255, 255, 255, 255);stroke-width: 2;}
.edge {fill: none;stroke: rgba(0, 0, 255, 255);stroke-width: 1;}
.edge-arrow {fill: rgba(0, 0, 255, 255);stroke: none;overflow: visible;}
.edge-text {font-family: Fira Mono;font-size: 0.625em;fill: rgba(0, 0, 0, 255);filter: #solid;transform: translate(0, 2.5px);text-anchor: middle;}
.edge-background {fill: rgba(255, 255, 255, 255);stroke: rgba(255, 255, 255, 255);stroke-width: 2;}
.arrow {fill: rgba(0, 0, 0, 255);stroke: none;}
.h1 {fill: rgba(0, 0, 0, 255);font-size: 12.000px;font-weight: bold;font-family: Fira Mono;text-align: left;dominant-baseline: middle;}
.h2 {fill: rgba(0, 0, 0, 255);font-size: 10.000px;font-weight: bold;font-family: Fira Mono;text-align: left;dominant-baseline: middle;}
.h3 {fill: rgba(0, 0, 0, 255);font-size: 8.000px;font-weight: bold;font-family: Fira Mono;text-align: left;dominant-baseline: middle;}
.h4 {fill: rgba(0, 0, 0, 255);font-size: 6.000px;font-weight: bold;font-family: Fira Mono;text-align: left;dominant-baseline: middle;}
.h5 {fill: rgba(0, 0, 0, 255);font-size: 5.000px;font-weight: bold;font-family: Fira Mono;text-align: left;dominant-baseline: middle;}
.h6 {fill: rgba(0, 0, 0, 255);font-size: 4.000px;font-weight: bold;font-family: Fira Mono;text-align: left;dominant-baseline: middle;}
.reg-data {fill: rgba(0, 0, 0, 255);font-size: 0.800em;font-style: normal;font-variant: normal;font-weight: 500;font-stretch: normal;text-align: center;font-family: Fira Mono;text-anchor: middle;dominant-baseline: middle;alignment-baseline: central;}
.reg-pos {fill: rgba(0, 0, 0, 255);font-size: 0.600em;font-style: normal;font-variant: normal;font-weight: 500;font-stretch: normal;text-align: center;font-family: Fira Mono;text-anchor: middle;dominant-baseline: middle;alignment-baseline: central;}</style>

<defs>
    <pattern id="diagonalHatch" width="5" height="5" patternTransform="rotate(45 0 0)" patternUnits="userSpaceOnUse">
        <line x1="0" y1="0" x2="0" y2="5" style="stroke:black; stroke-width:1" />
    </pattern>
    <marker id="arrow" viewBox="0 0 10 10" refX="10" refY="5"
        markerWidth="7" markerHeight="7" markerUnits="userSpaceOnUse"
        orient="auto-start-reverse" style="fill:#00F;">
      <path d="M 0 0 L 10 5 L 0 10 z" />
    </marker>
    <filter x="0" y="0" width="1" height="1" id="solid">
      <feFlood flood-color="white"/>
      <feComposite in="SourceGraphic"/>
    </filter>
</defs>
<g id="a"  >
<g id="ticks_1"  transform="translate(80.000000, 0.000000)"  >
<path d="M0.000000,0.000000 L0.000000,25.000000" class="tick" style="fill: none;" />
<path d="M40.000000,0.000000 L40.000000,25.000000" class="tick" style="fill: none;" />
<path d="M80.000000,0.000000 L80.000000,25.000000" class="tick" style="fill: none;" />
<path d="M120.000000,0.000000 L120.000000,25.000000" class="tick" style="fill: none;" />
<path d="M160.000000,0.000000 L160.000000,25.000000" class="tick" style="fill: none;" />
<path d="M200.000000,0.000000 L200.000000,25.000000" class="tick" style="fill: none;" />
<path d="M240.000000,0.000000 L240.000000,25.000000" class="tick" style="fill: none;" />
<path d="M280.000000,0.000000 L280.000000,25.000000" class="tick" style="fill: none;" />
<path d="M320.000000,0.000000 L320.000000,25.000000" class="tick" style="fill: none;" />
<path d="M360.000000,0.000000 L360.000000,25.000000" class="tick" style="fill: none;" />
<path d="M400.000000,0.000000 L400.000000,25.000000" class="tick" style="fill: none;" />
<path d="M440.000000,0.000000 L440.000000,25.000000" class="tick" style="fill: none;" />
<path d="M480.000000,0.000000 L480.000000,25.000000" class="tick" style="fill: none;" />
<path d="M520.000000,0.000000 L520.000000,25.000000" class="tick" style="fill: none;" />
<path d="M560.000000,0.000000 L560.000000,25.000000" class="tick" style="fill: none;" />
<path d="M600.000000,0.000000 L600.000000,25.000000" class="tick" style="fill: none;" />
<path d="M640.000000,0.000000 L640.000000,25.000000" class="tick" style="fill: none;" />
<path d="M680.000000,0.000000 L680.000000,25.000000" class="tick" style="fill: none;" />
<path d="M720.000000,0.000000 L720.000000,25.000000" class="tick" style="fill: none;" />
<path d="M760.000000,0.000000 L760.000000,25.000000" class="tick" style="fill: none;" />
<path d="M800.000000,0.000000 L800.000000,25.000000" class="tick" style="fill: none;" />
<path d="M840.000000,0.000000 L840.000000,25.000000" class="tick" style="fill: none;" />
<path d="M880.000000,0.000000 L880.000000,25.000000" class="tick" style="fill: none;" />
</g>

<g id="digital"  transform="translate(80.000000, 0.000000)"  >
<text x="-10.000000" y="10.000000" class="title" style="stroke: none;">digital</text>
<g data-symbol="0"  transform="translate(0.000000, 0.000000)"  class="">
<path d="M0.000000,20.000000 L0.000000,20.000000 L0.000000,20.000000 L40.000000,20.000000" class="path" style="fill: none;" />
</g>
<g data-symbol="1"  transform="translate(40.000000, 0.000000)"  class="">
<path d="M0.000000,20.000000 L0.000000,20.000000 L0.000000,0.000000 L80.000000,0.000000" class="path" style="fill: none;" />
</g>
<g data-symbol="z"  transform="translate(120.000000, 0.000000)"  class="">
<path d="M0.000000,0.000000 C0.000000,10.000000 0.000000,10.000000 20.000000,10.000000 L40.000000,10.000000" class="path" style="fill: none;"/>
</g>
<g data-symbol="x"  transform="translate(160.000000, 0.000000)"  class="">
<polygon points="0.000000, 10.000000 3.000000, 0.000000 37.000000, 0.000000 40.000000, 10.000000 40.000000, 10.000000 37.000000, 20.000000 3.000000, 20.000000 0.000000, 10.000000 " class="hatch" style="" />
<path d="M0.000000,10.000000 L3.000000,0.000000 L37.000000,0.000000 L40.000000,10.000000 L40.000000,10.000000 L37.000000,20.000000 L3.000000,20.000000 L0.000000,10.000000" class="path" style="fill: none;" />
</g>
<g data-symbol="="  transform="translate(200.000000, 0.000000)"  class="">
<polygon points="0.000000, 10.000000 3.000000, 0.000000 37.000000, 0.000000 40.000000, 10.000000 40.000000, 10.000000 37.000000, 20.000000 3.000000, 20.000000 0.000000, 10.000000 " class="s2-polygon" style="" />
<path d="M0.000000,10.000000 L3.000000,0.000000 L37.000000,0.000000 L40.000000,10.000000 L40.000000,10.000000 L37.000000,20.000000 L3.000000,20.000000 L0.000000,10.000000" class="path" style="fill: none;" />
<text x="20.000000" y="10.000000" class="data" style="stroke: none;"></text>
</g>
<g data-symbol="u"  transform="translate(240.000000, 0.000000)"  class="">
<path d="M0.000000,10.000000 C0.000000,10.000000 0.000000,0.000000 20.000000,0.000000 L40.000000,0.000000" class="path" style="fill: none;"/>
</g>
<g data-symbol="d"  transform="translate(280.000000, 0.000000)"  class="">
<path d="M0.000000,0.000000 C0.000000,0.000000 0.000000,20.000000 20.000000,20.000000 L80.000000,20.000000" class="path" style="fill: none;"/>
</g>
<g data-symbol="2"  transform="translate(360.000000, 0.000000)"  class="">
<polygon points="0.000000, 20.000000 3.000000, 0.000000 77.000000, 0.000000 80.000000, 10.000000 80.000000, 10.000000 77.000000, 20.000000 3.000000, 20.000000 0.000000, 20.000000 " class="s2-polygon" style="" />
<path d="M0.000000,20.000000 L3.000000,0.000000 L77.000000,0.000000 L80.000000,10.000000 L80.000000,10.000000 L77.000000,20.000000 L3.000000,20.000000 L0.000000,20.000000" class="path" style="fill: none;" />
<text x="40.000000" y="10.000000" class="data" style="stroke: none;"></text>
</g>
<g data-symbol="3"  transform="translate(440.000000, 0.000000)"  class="">
<polygon points="0.000000, 10.000000 3.000000, 0.000000 77.000000, 0.000000 80.000000, 10.000000 80.000000, 10.000000 77.000000, 20.000000 3.000000, 20.000000 0.000000, 10.000000 " class="s3-polygon" style="" />
<path d="M0.000000,10.000000 L3.000000,0.000000 L77.000000,0.000000 L80.000000,10.000000 L80.000000,10.000000 L77.000000,20.000000 L3.000000,20.000000 L0.000000,10.000000" class="path" style="fill: none;" />
<text x="40.000000" y="10.000000" class="data" style="stroke: none;"></text>
</g>
<g data-symbol="4"  transform="translate(520.000000, 0.000000)"  class="">
<polygon points="0.000000, 10.000000 3.000000, 0.000000 37.000000, 0.000000 40.000000, 10.000000 40.000000, 10.000000 37.000000, 20.000000 3.000000, 20.000000 0.000000, 10.000000 " class="s4-polygon" style="" />
<path d="M0.000000,10.000000 L3.000000,0.000000 L37.000000,0.000000 L40.000000,10.000000 L40.000000,10.000000 L37.000000,20.000000 L3.000000,20.000000 L0.000000,10.000000" class="path" style="fill: none;" />
<text x="20.000000" y="10.000000" class="data" style="stroke: none;"></text>
</g>
<g data-symbol="5"  transform="translate(560.000000, 0.000000)"  class="">
<polygon points="0.000000, 10.000000 3.000000, 0.000000 37.000000, 0.000000 40.000000, 10.000000 40.000000, 10.000000 37.000000, 20.000000 3.000000, 20.000000 0.000000, 10.000000 " class="s5-polygon" style="" />
<path d="M0.000000,10.000000 L3.000000,0.000000 L37.000000,0.000000 L40.000000,10.000000 L40.000000,10.000000 L37.000000,20.000000 L3.000000,20.000000 L0.000000,10.000000" class="path" style="fill: none;" />
<text x="20.000000" y="10.000000" class="data" style="stroke: none;"></text>
</g>
<g data-symbol="X"  transform="translate(600.000000, 0.000000)"  class="">
<polygon points="3.000000, 10.000000 0.000000, 0.000000 37.000000, 0.000000 40.000000, 10.000000 37.000000, 20.000000 0.000000, 20.000000 3.000000, 10.000000 " class="hatch" style="" />
<path d="M3.000000,10.000000 L0.000000,0.000000 L37.000000,0.000000 L40.000000,10.000000" class="path" style="fill: none;" />
<path d="M3.000000,10.000000 L0.000000,20.000000 L37.000000,20.000000 L40.000000,10.000000" class="path" style="fill: none;" />
</g>
<g data-symbol="z"  transform="translate(640.000000, 0.000000)"  class="">
<path d="M0.000000,10.000000 C0.000000,10.000000 0.000000,10.000000 20.000000,10.000000 L40.000000,10.000000" class="path" style="fill: none;"/>
</g>
<g data-symbol="i"  transform="translate(680.000000, 0.000000)"  class="">
<path d="M0.000000,10.000000 L0.000000,0.000000 L20.000000,0.000000 L20.000000,20.000000 L20.000000,0.000000 L40.000000,0.000000" class="path" style="fill: none;" />
</g>
<g data-symbol="I"  transform="translate(720.000000, 0.000000)"  class="">
<path d="M0.000000,0.000000 L0.000000,20.000000 L20.000000,20.000000 L20.000000,0.000000 L20.000000,20.000000 L40.000000,20.000000" class="path" style="fill: none;" />
</g>
<g data-symbol="z"  transform="translate(760.000000, 0.000000)"  class="">
<path d="M0.000000,20.000000 C0.000000,10.000000 0.000000,10.000000 20.000000,10.000000 L40.000000,10.000000" class="path" style="fill: none;"/>
</g>
<g data-symbol="m"  transform="translate(800.000000, 0.000000)"  class="">
<path d="m0.000000,10.000000 L0.000000,10.000000 L1.000000,10.836266 L2.000000,11.422482 L3.000000,11.495414 L4.000000,10.971602 L5.000000,10.000000 L6.000000,8.926213 L7.000000,8.173497 L8.000000,8.079850 L9.000000,8.752438 L10.000000,10.000000 L11.000000,11.378770 L12.000000,12.345276 L13.000000,12.465521 L14.000000,11.601902 L15.000000,10.000000 L16.000000,8.229625 L17.000000,6.988605 L18.000000,6.834208 L19.000000,7.943118 L20.000000,10.000000 L21.000000,12.273207 L22.000000,13.866707 L23.000000,14.064958 L24.000000,12.641089 L25.000000,10.000000 L26.000000,7.081145 L27.000000,5.035050 L28.000000,4.780491 L29.000000,6.608774 L30.000000,10.000000 L31.000000,13.747884 C37.252116,20.000000 37.252116,20.000000 40.000000,20.000000" class="path" style="fill: none;"/>
</g>
<g data-symbol="z"  transform="translate(840.000000, 0.000000)"  class="">
<path d="M0.000000,20.000000 C0.000000,10.000000 0.000000,10.000000 20.000000,10.000000 L40.000000,10.000000" class="path" style="fill: none;"/>
</g>
<g data-symbol="M"  transform="translate(880.000000, 0.000000)"  class="">
<path d="m0.000000,10.000000 L0.000000,10.000000 L1.000000,9.163734 L2.000000,8.577518 L3.000000,8.504586 L4.000000,9.028398 L5.000000,10.000000 L6.000000,11.073787 L7.000000,11.826503 L8.000000,11.920150 L9.000000,11.247562 L10.000000,10.000000 L11.000000,8.621230 L12.000000,7.654724 L13.000000,7.534479 L14.000000,8.398098 L15.000000,10.000000 L16.000000,11.770375 L17.000000,13.011395 L18.000000,13.165792 L19.000000,12.056882 L20.000000,10.000000 L21.000000,7.726793 L22.000000,6.133293 L23.000000,5.935042 L24.000000,7.358911 L25.000000,10.000000 L26.000000,12.918855 L27.000000,14.964950 L28.000000,15.219509 L29.000000,13.391226 L30.000000,10.000000 L31.000000,6.252116 C37.252116,0.000000 37.252116,0.000000 40.000000,0.000000" class="path" style="fill: none;"/>
</g>
</g>
</g>

</svg>